<?xml version="1.0" encoding="utf-8" standalone="no"?>
<!DOCTYPE svg PUBLIC "-//W3C//DTD SVG 1.1//EN"
  "http://www.w3.org/Graphics/SVG/1.1/DTD/svg11.dtd">
<svg height="57.6pt" version="1.1" viewBox="0 0 72 57.6" width="72pt" xmlns="http://www.w3.org/2000/svg" xmlns:xlink="http://www.w3.org/1999/xlink">
 <metadata>
  <rdf:RDF xmlns:cc="http://creativecommons.org/ns#" xmlns:dc="http://purl.org/dc/elements/1.1/" xmlns:rdf="http://www.w3.org/1999/02/22-rdf-syntax-ns#">
   <cc:Work>
    <dc:type rdf:resource="http://purl.org/dc/dcmitype/StillImage"/>
    <dc:date>2023-07-26T20:03:48.134084</dc:date>
    <dc:format>image/svg+xml</dc:format>
    <dc:creator>
     <cc:Agent>
      <dc:title>Matplotlib v3.4.3, https://matplotlib.org/</dc:title>
     </cc:Agent>
    </dc:creator>
   </cc:Work>
  </rdf:RDF>
 </metadata>
 <defs>
  <style type="text/css">*{stroke-linecap:butt;stroke-linejoin:round;}</style>
 </defs>
 <g id="figure_1">
  <g id="patch_1">
   <path d="M 0 57.6 
L 72 57.6 
L 72 0 
L 0 0 
z
" style="fill:#ffffff;"/>
  </g>
  <g id="axes_1">
   <g id="patch_2">
    <path d="M 9 51.264 
L 64.8 51.264 
L 64.8 6.912 
L 9 6.912 
z
" style="fill:#ffffff;"/>
   </g>
   <g id="patch_3">
    <path clip-path="url(#pf2ceb5bafb)" d="M 26.36965 51.264 
L 27.455253 51.264 
L 27.455253 32.490667 
L 26.36965 32.490667 
z
" style="fill:#ff0000;opacity:0.8;"/>
   </g>
   <g id="patch_4">
    <path clip-path="url(#pf2ceb5bafb)" d="M 27.455253 51.264 
L 28.540856 51.264 
L 28.540856 27.797333 
L 27.455253 27.797333 
z
" style="fill:#ff0000;opacity:0.8;"/>
   </g>
   <g id="patch_5">
    <path clip-path="url(#pf2ceb5bafb)" d="M 28.540856 51.264 
L 29.626459 51.264 
L 29.626459 9.024 
L 28.540856 9.024 
z
" style="fill:#ff0000;opacity:0.8;"/>
   </g>
   <g id="patch_6">
    <path clip-path="url(#pf2ceb5bafb)" d="M 29.626459 51.264 
L 30.712062 51.264 
L 30.712062 41.877333 
L 29.626459 41.877333 
z
" style="fill:#ff0000;opacity:0.8;"/>
   </g>
   <g id="patch_7">
    <path clip-path="url(#pf2ceb5bafb)" d="M 30.712062 51.264 
L 31.797665 51.264 
L 31.797665 51.264 
L 30.712062 51.264 
z
" style="fill:#ff0000;opacity:0.8;"/>
   </g>
   <g id="patch_8">
    <path clip-path="url(#pf2ceb5bafb)" d="M 31.797665 51.264 
L 32.883268 51.264 
L 32.883268 51.264 
L 31.797665 51.264 
z
" style="fill:#ff0000;opacity:0.8;"/>
   </g>
   <g id="patch_9">
    <path clip-path="url(#pf2ceb5bafb)" d="M 32.883268 51.264 
L 33.968872 51.264 
L 33.968872 51.264 
L 32.883268 51.264 
z
" style="fill:#ff0000;opacity:0.8;"/>
   </g>
   <g id="patch_10">
    <path clip-path="url(#pf2ceb5bafb)" d="M 33.968872 51.264 
L 35.054475 51.264 
L 35.054475 51.264 
L 33.968872 51.264 
z
" style="fill:#ff0000;opacity:0.8;"/>
   </g>
   <g id="patch_11">
    <path clip-path="url(#pf2ceb5bafb)" d="M 35.054475 51.264 
L 36.140078 51.264 
L 36.140078 51.264 
L 35.054475 51.264 
z
" style="fill:#ff0000;opacity:0.8;"/>
   </g>
   <g id="patch_12">
    <path clip-path="url(#pf2ceb5bafb)" d="M 36.140078 51.264 
L 37.225681 51.264 
L 37.225681 51.264 
L 36.140078 51.264 
z
" style="fill:#ff0000;opacity:0.8;"/>
   </g>
   <g id="patch_13">
    <path clip-path="url(#pf2ceb5bafb)" d="M 37.225681 51.264 
L 38.311284 51.264 
L 38.311284 51.264 
L 37.225681 51.264 
z
" style="fill:#ff0000;opacity:0.8;"/>
   </g>
   <g id="patch_14">
    <path clip-path="url(#pf2ceb5bafb)" d="M 38.311284 51.264 
L 39.396887 51.264 
L 39.396887 51.264 
L 38.311284 51.264 
z
" style="fill:#ff0000;opacity:0.8;"/>
   </g>
   <g id="patch_15">
    <path clip-path="url(#pf2ceb5bafb)" d="M 39.396887 51.264 
L 40.48249 51.264 
L 40.48249 51.264 
L 39.396887 51.264 
z
" style="fill:#ff0000;opacity:0.8;"/>
   </g>
   <g id="patch_16">
    <path clip-path="url(#pf2ceb5bafb)" d="M 40.48249 51.264 
L 41.568093 51.264 
L 41.568093 51.264 
L 40.48249 51.264 
z
" style="fill:#ff0000;opacity:0.8;"/>
   </g>
   <g id="patch_17">
    <path clip-path="url(#pf2ceb5bafb)" d="M 41.568093 51.264 
L 42.653696 51.264 
L 42.653696 51.264 
L 41.568093 51.264 
z
" style="fill:#ff0000;opacity:0.8;"/>
   </g>
   <g id="patch_18">
    <path clip-path="url(#pf2ceb5bafb)" d="M 42.653696 51.264 
L 43.7393 51.264 
L 43.7393 51.264 
L 42.653696 51.264 
z
" style="fill:#ff0000;opacity:0.8;"/>
   </g>
   <g id="patch_19">
    <path clip-path="url(#pf2ceb5bafb)" d="M 43.7393 51.264 
L 44.824903 51.264 
L 44.824903 51.264 
L 43.7393 51.264 
z
" style="fill:#ff0000;opacity:0.8;"/>
   </g>
   <g id="patch_20">
    <path clip-path="url(#pf2ceb5bafb)" d="M 44.824903 51.264 
L 45.910506 51.264 
L 45.910506 51.264 
L 44.824903 51.264 
z
" style="fill:#ff0000;opacity:0.8;"/>
   </g>
   <g id="patch_21">
    <path clip-path="url(#pf2ceb5bafb)" d="M 45.910506 51.264 
L 46.996109 51.264 
L 46.996109 51.264 
L 45.910506 51.264 
z
" style="fill:#ff0000;opacity:0.8;"/>
   </g>
   <g id="patch_22">
    <path clip-path="url(#pf2ceb5bafb)" d="M 46.996109 51.264 
L 48.081712 51.264 
L 48.081712 46.570667 
L 46.996109 46.570667 
z
" style="fill:#ff0000;opacity:0.8;"/>
   </g>
   <g id="patch_23">
    <path clip-path="url(#pf2ceb5bafb)" d="M 48.081712 51.264 
L 49.167315 51.264 
L 49.167315 51.264 
L 48.081712 51.264 
z
" style="fill:#ff0000;opacity:0.8;"/>
   </g>
   <g id="patch_24">
    <path clip-path="url(#pf2ceb5bafb)" d="M 49.167315 51.264 
L 50.252918 51.264 
L 50.252918 51.264 
L 49.167315 51.264 
z
" style="fill:#ff0000;opacity:0.8;"/>
   </g>
   <g id="patch_25">
    <path clip-path="url(#pf2ceb5bafb)" d="M 50.252918 51.264 
L 51.338521 51.264 
L 51.338521 51.264 
L 50.252918 51.264 
z
" style="fill:#ff0000;opacity:0.8;"/>
   </g>
   <g id="patch_26">
    <path clip-path="url(#pf2ceb5bafb)" d="M 51.338521 51.264 
L 52.424125 51.264 
L 52.424125 51.264 
L 51.338521 51.264 
z
" style="fill:#ff0000;opacity:0.8;"/>
   </g>
   <g id="patch_27">
    <path clip-path="url(#pf2ceb5bafb)" d="M 52.424125 51.264 
L 53.509728 51.264 
L 53.509728 51.264 
L 52.424125 51.264 
z
" style="fill:#ff0000;opacity:0.8;"/>
   </g>
   <g id="patch_28">
    <path clip-path="url(#pf2ceb5bafb)" d="M 53.509728 51.264 
L 54.595331 51.264 
L 54.595331 51.264 
L 53.509728 51.264 
z
" style="fill:#ff0000;opacity:0.8;"/>
   </g>
   <g id="patch_29">
    <path clip-path="url(#pf2ceb5bafb)" d="M 54.595331 51.264 
L 55.680934 51.264 
L 55.680934 51.264 
L 54.595331 51.264 
z
" style="fill:#ff0000;opacity:0.8;"/>
   </g>
   <g id="patch_30">
    <path clip-path="url(#pf2ceb5bafb)" d="M 55.680934 51.264 
L 56.766537 51.264 
L 56.766537 51.264 
L 55.680934 51.264 
z
" style="fill:#ff0000;opacity:0.8;"/>
   </g>
   <g id="patch_31">
    <path clip-path="url(#pf2ceb5bafb)" d="M 56.766537 51.264 
L 57.85214 51.264 
L 57.85214 51.264 
L 56.766537 51.264 
z
" style="fill:#ff0000;opacity:0.8;"/>
   </g>
   <g id="patch_32">
    <path clip-path="url(#pf2ceb5bafb)" d="M 57.85214 51.264 
L 58.937743 51.264 
L 58.937743 51.264 
L 57.85214 51.264 
z
" style="fill:#ff0000;opacity:0.8;"/>
   </g>
   <g id="patch_33">
    <path clip-path="url(#pf2ceb5bafb)" d="M 58.937743 51.264 
L 60.023346 51.264 
L 60.023346 51.264 
L 58.937743 51.264 
z
" style="fill:#ff0000;opacity:0.8;"/>
   </g>
   <g id="patch_34">
    <path clip-path="url(#pf2ceb5bafb)" d="M 60.023346 51.264 
L 61.108949 51.264 
L 61.108949 51.264 
L 60.023346 51.264 
z
" style="fill:#ff0000;opacity:0.8;"/>
   </g>
   <g id="patch_35">
    <path clip-path="url(#pf2ceb5bafb)" d="M 61.108949 51.264 
L 62.194553 51.264 
L 62.194553 51.264 
L 61.108949 51.264 
z
" style="fill:#ff0000;opacity:0.8;"/>
   </g>
   <g id="patch_36">
    <path clip-path="url(#pf2ceb5bafb)" d="M 62.194553 51.264 
L 63.280156 51.264 
L 63.280156 51.264 
L 62.194553 51.264 
z
" style="fill:#ff0000;opacity:0.8;"/>
   </g>
   <g id="patch_37">
    <path clip-path="url(#pf2ceb5bafb)" d="M 63.280156 51.264 
L 64.365759 51.264 
L 64.365759 51.264 
L 63.280156 51.264 
z
" style="fill:#ff0000;opacity:0.8;"/>
   </g>
   <g id="patch_38">
    <path clip-path="url(#pf2ceb5bafb)" d="M 64.365759 51.264 
L 65.451362 51.264 
L 65.451362 51.264 
L 64.365759 51.264 
z
" style="fill:#ff0000;opacity:0.8;"/>
   </g>
   <g id="matplotlib.axis_1">
    <g id="xtick_1">
     <g id="line2d_1">
      <defs>
       <path d="M 0 0 
L 0 3.5 
" id="mda726293ba" style="stroke:#000000;stroke-width:0.8;"/>
      </defs>
      <g>
       <use style="stroke:#000000;stroke-width:0.8;" x="9" xlink:href="#mda726293ba" y="51.264"/>
      </g>
     </g>
     <g id="text_1">
      <!-- 0 -->
      <g transform="translate(5.81875 65.862437)scale(0.1 -0.1)">
       <defs>
        <path d="M 2034 4250 
Q 1547 4250 1301 3770 
Q 1056 3291 1056 2328 
Q 1056 1369 1301 889 
Q 1547 409 2034 409 
Q 2525 409 2770 889 
Q 3016 1369 3016 2328 
Q 3016 3291 2770 3770 
Q 2525 4250 2034 4250 
z
M 2034 4750 
Q 2819 4750 3233 4129 
Q 3647 3509 3647 2328 
Q 3647 1150 3233 529 
Q 2819 -91 2034 -91 
Q 1250 -91 836 529 
Q 422 1150 422 2328 
Q 422 3509 836 4129 
Q 1250 4750 2034 4750 
z
" id="DejaVuSans-30" transform="scale(0.015625)"/>
       </defs>
       <use xlink:href="#DejaVuSans-30"/>
      </g>
     </g>
    </g>
    <g id="xtick_2">
     <g id="line2d_2">
      <g>
       <use style="stroke:#000000;stroke-width:0.8;" x="36.140078" xlink:href="#mda726293ba" y="51.264"/>
      </g>
     </g>
     <g id="text_2">
      <!-- 125 -->
      <g transform="translate(26.596328 65.862437)scale(0.1 -0.1)">
       <defs>
        <path d="M 794 531 
L 1825 531 
L 1825 4091 
L 703 3866 
L 703 4441 
L 1819 4666 
L 2450 4666 
L 2450 531 
L 3481 531 
L 3481 0 
L 794 0 
L 794 531 
z
" id="DejaVuSans-31" transform="scale(0.015625)"/>
        <path d="M 1228 531 
L 3431 531 
L 3431 0 
L 469 0 
L 469 531 
Q 828 903 1448 1529 
Q 2069 2156 2228 2338 
Q 2531 2678 2651 2914 
Q 2772 3150 2772 3378 
Q 2772 3750 2511 3984 
Q 2250 4219 1831 4219 
Q 1534 4219 1204 4116 
Q 875 4013 500 3803 
L 500 4441 
Q 881 4594 1212 4672 
Q 1544 4750 1819 4750 
Q 2544 4750 2975 4387 
Q 3406 4025 3406 3419 
Q 3406 3131 3298 2873 
Q 3191 2616 2906 2266 
Q 2828 2175 2409 1742 
Q 1991 1309 1228 531 
z
" id="DejaVuSans-32" transform="scale(0.015625)"/>
        <path d="M 691 4666 
L 3169 4666 
L 3169 4134 
L 1269 4134 
L 1269 2991 
Q 1406 3038 1543 3061 
Q 1681 3084 1819 3084 
Q 2600 3084 3056 2656 
Q 3513 2228 3513 1497 
Q 3513 744 3044 326 
Q 2575 -91 1722 -91 
Q 1428 -91 1123 -41 
Q 819 9 494 109 
L 494 744 
Q 775 591 1075 516 
Q 1375 441 1709 441 
Q 2250 441 2565 725 
Q 2881 1009 2881 1497 
Q 2881 1984 2565 2268 
Q 2250 2553 1709 2553 
Q 1456 2553 1204 2497 
Q 953 2441 691 2322 
L 691 4666 
z
" id="DejaVuSans-35" transform="scale(0.015625)"/>
       </defs>
       <use xlink:href="#DejaVuSans-31"/>
       <use x="63.623047" xlink:href="#DejaVuSans-32"/>
       <use x="127.246094" xlink:href="#DejaVuSans-35"/>
      </g>
     </g>
    </g>
    <g id="xtick_3">
     <g id="line2d_3">
      <g>
       <use style="stroke:#000000;stroke-width:0.8;" x="63.280156" xlink:href="#mda726293ba" y="51.264"/>
      </g>
     </g>
     <g id="text_3">
      <!-- 250 -->
      <g transform="translate(53.736406 65.862437)scale(0.1 -0.1)">
       <use xlink:href="#DejaVuSans-32"/>
       <use x="63.623047" xlink:href="#DejaVuSans-35"/>
       <use x="127.246094" xlink:href="#DejaVuSans-30"/>
      </g>
     </g>
    </g>
   </g>
   <g id="matplotlib.axis_2"/>
   <g id="patch_39">
    <path d="M 9 51.264 
L 9 6.912 
" style="fill:none;stroke:#000000;stroke-linecap:square;stroke-linejoin:miter;stroke-width:0.8;"/>
   </g>
   <g id="patch_40">
    <path d="M 64.8 51.264 
L 64.8 6.912 
" style="fill:none;stroke:#000000;stroke-linecap:square;stroke-linejoin:miter;stroke-width:0.8;"/>
   </g>
   <g id="patch_41">
    <path d="M 9 51.264 
L 64.8 51.264 
" style="fill:none;stroke:#000000;stroke-linecap:square;stroke-linejoin:miter;stroke-width:0.8;"/>
   </g>
   <g id="patch_42">
    <path d="M 9 6.912 
L 64.8 6.912 
" style="fill:none;stroke:#000000;stroke-linecap:square;stroke-linejoin:miter;stroke-width:0.8;"/>
   </g>
   <g id="text_4">
    <!-- Cluster 17 - 21 sequences -->
    <g transform="translate(-41.4975 0.912)scale(0.12 -0.12)">
     <defs>
      <path d="M 4122 4306 
L 4122 3641 
Q 3803 3938 3442 4084 
Q 3081 4231 2675 4231 
Q 1875 4231 1450 3742 
Q 1025 3253 1025 2328 
Q 1025 1406 1450 917 
Q 1875 428 2675 428 
Q 3081 428 3442 575 
Q 3803 722 4122 1019 
L 4122 359 
Q 3791 134 3420 21 
Q 3050 -91 2638 -91 
Q 1578 -91 968 557 
Q 359 1206 359 2328 
Q 359 3453 968 4101 
Q 1578 4750 2638 4750 
Q 3056 4750 3426 4639 
Q 3797 4528 4122 4306 
z
" id="DejaVuSans-43" transform="scale(0.015625)"/>
      <path d="M 603 4863 
L 1178 4863 
L 1178 0 
L 603 0 
L 603 4863 
z
" id="DejaVuSans-6c" transform="scale(0.015625)"/>
      <path d="M 544 1381 
L 544 3500 
L 1119 3500 
L 1119 1403 
Q 1119 906 1312 657 
Q 1506 409 1894 409 
Q 2359 409 2629 706 
Q 2900 1003 2900 1516 
L 2900 3500 
L 3475 3500 
L 3475 0 
L 2900 0 
L 2900 538 
Q 2691 219 2414 64 
Q 2138 -91 1772 -91 
Q 1169 -91 856 284 
Q 544 659 544 1381 
z
M 1991 3584 
L 1991 3584 
z
" id="DejaVuSans-75" transform="scale(0.015625)"/>
      <path d="M 2834 3397 
L 2834 2853 
Q 2591 2978 2328 3040 
Q 2066 3103 1784 3103 
Q 1356 3103 1142 2972 
Q 928 2841 928 2578 
Q 928 2378 1081 2264 
Q 1234 2150 1697 2047 
L 1894 2003 
Q 2506 1872 2764 1633 
Q 3022 1394 3022 966 
Q 3022 478 2636 193 
Q 2250 -91 1575 -91 
Q 1294 -91 989 -36 
Q 684 19 347 128 
L 347 722 
Q 666 556 975 473 
Q 1284 391 1588 391 
Q 1994 391 2212 530 
Q 2431 669 2431 922 
Q 2431 1156 2273 1281 
Q 2116 1406 1581 1522 
L 1381 1569 
Q 847 1681 609 1914 
Q 372 2147 372 2553 
Q 372 3047 722 3315 
Q 1072 3584 1716 3584 
Q 2034 3584 2315 3537 
Q 2597 3491 2834 3397 
z
" id="DejaVuSans-73" transform="scale(0.015625)"/>
      <path d="M 1172 4494 
L 1172 3500 
L 2356 3500 
L 2356 3053 
L 1172 3053 
L 1172 1153 
Q 1172 725 1289 603 
Q 1406 481 1766 481 
L 2356 481 
L 2356 0 
L 1766 0 
Q 1100 0 847 248 
Q 594 497 594 1153 
L 594 3053 
L 172 3053 
L 172 3500 
L 594 3500 
L 594 4494 
L 1172 4494 
z
" id="DejaVuSans-74" transform="scale(0.015625)"/>
      <path d="M 3597 1894 
L 3597 1613 
L 953 1613 
Q 991 1019 1311 708 
Q 1631 397 2203 397 
Q 2534 397 2845 478 
Q 3156 559 3463 722 
L 3463 178 
Q 3153 47 2828 -22 
Q 2503 -91 2169 -91 
Q 1331 -91 842 396 
Q 353 884 353 1716 
Q 353 2575 817 3079 
Q 1281 3584 2069 3584 
Q 2775 3584 3186 3129 
Q 3597 2675 3597 1894 
z
M 3022 2063 
Q 3016 2534 2758 2815 
Q 2500 3097 2075 3097 
Q 1594 3097 1305 2825 
Q 1016 2553 972 2059 
L 3022 2063 
z
" id="DejaVuSans-65" transform="scale(0.015625)"/>
      <path d="M 2631 2963 
Q 2534 3019 2420 3045 
Q 2306 3072 2169 3072 
Q 1681 3072 1420 2755 
Q 1159 2438 1159 1844 
L 1159 0 
L 581 0 
L 581 3500 
L 1159 3500 
L 1159 2956 
Q 1341 3275 1631 3429 
Q 1922 3584 2338 3584 
Q 2397 3584 2469 3576 
Q 2541 3569 2628 3553 
L 2631 2963 
z
" id="DejaVuSans-72" transform="scale(0.015625)"/>
      <path id="DejaVuSans-20" transform="scale(0.015625)"/>
      <path d="M 525 4666 
L 3525 4666 
L 3525 4397 
L 1831 0 
L 1172 0 
L 2766 4134 
L 525 4134 
L 525 4666 
z
" id="DejaVuSans-37" transform="scale(0.015625)"/>
      <path d="M 313 2009 
L 1997 2009 
L 1997 1497 
L 313 1497 
L 313 2009 
z
" id="DejaVuSans-2d" transform="scale(0.015625)"/>
      <path d="M 947 1747 
Q 947 1113 1208 752 
Q 1469 391 1925 391 
Q 2381 391 2643 752 
Q 2906 1113 2906 1747 
Q 2906 2381 2643 2742 
Q 2381 3103 1925 3103 
Q 1469 3103 1208 2742 
Q 947 2381 947 1747 
z
M 2906 525 
Q 2725 213 2448 61 
Q 2172 -91 1784 -91 
Q 1150 -91 751 415 
Q 353 922 353 1747 
Q 353 2572 751 3078 
Q 1150 3584 1784 3584 
Q 2172 3584 2448 3432 
Q 2725 3281 2906 2969 
L 2906 3500 
L 3481 3500 
L 3481 -1331 
L 2906 -1331 
L 2906 525 
z
" id="DejaVuSans-71" transform="scale(0.015625)"/>
      <path d="M 3513 2113 
L 3513 0 
L 2938 0 
L 2938 2094 
Q 2938 2591 2744 2837 
Q 2550 3084 2163 3084 
Q 1697 3084 1428 2787 
Q 1159 2491 1159 1978 
L 1159 0 
L 581 0 
L 581 3500 
L 1159 3500 
L 1159 2956 
Q 1366 3272 1645 3428 
Q 1925 3584 2291 3584 
Q 2894 3584 3203 3211 
Q 3513 2838 3513 2113 
z
" id="DejaVuSans-6e" transform="scale(0.015625)"/>
      <path d="M 3122 3366 
L 3122 2828 
Q 2878 2963 2633 3030 
Q 2388 3097 2138 3097 
Q 1578 3097 1268 2742 
Q 959 2388 959 1747 
Q 959 1106 1268 751 
Q 1578 397 2138 397 
Q 2388 397 2633 464 
Q 2878 531 3122 666 
L 3122 134 
Q 2881 22 2623 -34 
Q 2366 -91 2075 -91 
Q 1284 -91 818 406 
Q 353 903 353 1747 
Q 353 2603 823 3093 
Q 1294 3584 2113 3584 
Q 2378 3584 2631 3529 
Q 2884 3475 3122 3366 
z
" id="DejaVuSans-63" transform="scale(0.015625)"/>
     </defs>
     <use xlink:href="#DejaVuSans-43"/>
     <use x="69.824219" xlink:href="#DejaVuSans-6c"/>
     <use x="97.607422" xlink:href="#DejaVuSans-75"/>
     <use x="160.986328" xlink:href="#DejaVuSans-73"/>
     <use x="213.085938" xlink:href="#DejaVuSans-74"/>
     <use x="252.294922" xlink:href="#DejaVuSans-65"/>
     <use x="313.818359" xlink:href="#DejaVuSans-72"/>
     <use x="354.931641" xlink:href="#DejaVuSans-20"/>
     <use x="386.71875" xlink:href="#DejaVuSans-31"/>
     <use x="450.341797" xlink:href="#DejaVuSans-37"/>
     <use x="513.964844" xlink:href="#DejaVuSans-20"/>
     <use x="545.751953" xlink:href="#DejaVuSans-2d"/>
     <use x="581.835938" xlink:href="#DejaVuSans-20"/>
     <use x="613.623047" xlink:href="#DejaVuSans-32"/>
     <use x="677.246094" xlink:href="#DejaVuSans-31"/>
     <use x="740.869141" xlink:href="#DejaVuSans-20"/>
     <use x="772.65625" xlink:href="#DejaVuSans-73"/>
     <use x="824.755859" xlink:href="#DejaVuSans-65"/>
     <use x="886.279297" xlink:href="#DejaVuSans-71"/>
     <use x="949.755859" xlink:href="#DejaVuSans-75"/>
     <use x="1013.134766" xlink:href="#DejaVuSans-65"/>
     <use x="1074.658203" xlink:href="#DejaVuSans-6e"/>
     <use x="1138.037109" xlink:href="#DejaVuSans-63"/>
     <use x="1193.017578" xlink:href="#DejaVuSans-65"/>
     <use x="1254.541016" xlink:href="#DejaVuSans-73"/>
    </g>
   </g>
  </g>
 </g>
 <defs>
  <clipPath id="pf2ceb5bafb">
   <rect height="44.352" width="55.8" x="9" y="6.912"/>
  </clipPath>
 </defs>
</svg>
