<?xml version="1.0" encoding="utf-8" standalone="no"?>
<!DOCTYPE svg PUBLIC "-//W3C//DTD SVG 1.1//EN"
  "http://www.w3.org/Graphics/SVG/1.1/DTD/svg11.dtd">
<svg height="216pt" version="1.1" viewBox="0 0 360 216" width="360pt" xmlns="http://www.w3.org/2000/svg" xmlns:xlink="http://www.w3.org/1999/xlink">
 <metadata>
  <rdf:RDF xmlns:cc="http://creativecommons.org/ns#" xmlns:dc="http://purl.org/dc/elements/1.1/" xmlns:rdf="http://www.w3.org/1999/02/22-rdf-syntax-ns#">
   <cc:Work>
    <dc:type rdf:resource="http://purl.org/dc/dcmitype/StillImage"/>
    <dc:date>2023-07-30T15:25:04.101174</dc:date>
    <dc:format>image/svg+xml</dc:format>
    <dc:creator>
     <cc:Agent>
      <dc:title>Matplotlib v3.4.3, https://matplotlib.org/</dc:title>
     </cc:Agent>
    </dc:creator>
   </cc:Work>
  </rdf:RDF>
 </metadata>
 <defs>
  <style type="text/css">*{stroke-linecap:butt;stroke-linejoin:round;}</style>
 </defs>
 <g id="figure_1">
  <g id="patch_1">
   <path d="M 0 216 
L 360 216 
L 360 0 
L 0 0 
z
" style="fill:#ffffff;"/>
  </g>
  <g id="axes_1">
   <g id="patch_2">
    <path d="M 51.05 174.04 
L 349.2 174.04 
L 349.2 25.44 
L 51.05 25.44 
z
" style="fill:#ffffff;"/>
   </g>
   <g id="patch_3">
    <path clip-path="url(#pc0e700eaf5)" d="M 69.911071 174.04 
L 71.361922 174.04 
L 71.361922 173.214444 
L 69.911071 173.214444 
z
" style="fill:#ff0000;opacity:0.8;"/>
   </g>
   <g id="patch_4">
    <path clip-path="url(#pc0e700eaf5)" d="M 71.361922 174.04 
L 72.812774 174.04 
L 72.812774 174.04 
L 71.361922 174.04 
z
" style="fill:#ff0000;opacity:0.8;"/>
   </g>
   <g id="patch_5">
    <path clip-path="url(#pc0e700eaf5)" d="M 72.812774 174.04 
L 74.263625 174.04 
L 74.263625 170.737778 
L 72.812774 170.737778 
z
" style="fill:#ff0000;opacity:0.8;"/>
   </g>
   <g id="patch_6">
    <path clip-path="url(#pc0e700eaf5)" d="M 74.263625 174.04 
L 75.714477 174.04 
L 75.714477 173.214444 
L 74.263625 173.214444 
z
" style="fill:#ff0000;opacity:0.8;"/>
   </g>
   <g id="patch_7">
    <path clip-path="url(#pc0e700eaf5)" d="M 75.714477 174.04 
L 77.165328 174.04 
L 77.165328 160.005556 
L 75.714477 160.005556 
z
" style="fill:#ff0000;opacity:0.8;"/>
   </g>
   <g id="patch_8">
    <path clip-path="url(#pc0e700eaf5)" d="M 77.165328 174.04 
L 78.61618 174.04 
L 78.61618 170.737778 
L 77.165328 170.737778 
z
" style="fill:#ff0000;opacity:0.8;"/>
   </g>
   <g id="patch_9">
    <path clip-path="url(#pc0e700eaf5)" d="M 78.61618 174.04 
L 80.067032 174.04 
L 80.067032 171.563333 
L 78.61618 171.563333 
z
" style="fill:#ff0000;opacity:0.8;"/>
   </g>
   <g id="patch_10">
    <path clip-path="url(#pc0e700eaf5)" d="M 80.067032 174.04 
L 81.517883 174.04 
L 81.517883 171.563333 
L 80.067032 171.563333 
z
" style="fill:#ff0000;opacity:0.8;"/>
   </g>
   <g id="patch_11">
    <path clip-path="url(#pc0e700eaf5)" d="M 81.517883 174.04 
L 82.968735 174.04 
L 82.968735 172.388889 
L 81.517883 172.388889 
z
" style="fill:#ff0000;opacity:0.8;"/>
   </g>
   <g id="patch_12">
    <path clip-path="url(#pc0e700eaf5)" d="M 82.968735 174.04 
L 84.419586 174.04 
L 84.419586 171.563333 
L 82.968735 171.563333 
z
" style="fill:#ff0000;opacity:0.8;"/>
   </g>
   <g id="patch_13">
    <path clip-path="url(#pc0e700eaf5)" d="M 84.419586 174.04 
L 85.870438 174.04 
L 85.870438 173.214444 
L 84.419586 173.214444 
z
" style="fill:#ff0000;opacity:0.8;"/>
   </g>
   <g id="patch_14">
    <path clip-path="url(#pc0e700eaf5)" d="M 85.870438 174.04 
L 87.32129 174.04 
L 87.32129 166.61 
L 85.870438 166.61 
z
" style="fill:#ff0000;opacity:0.8;"/>
   </g>
   <g id="patch_15">
    <path clip-path="url(#pc0e700eaf5)" d="M 87.32129 174.04 
L 88.772141 174.04 
L 88.772141 167.435556 
L 87.32129 167.435556 
z
" style="fill:#ff0000;opacity:0.8;"/>
   </g>
   <g id="patch_16">
    <path clip-path="url(#pc0e700eaf5)" d="M 88.772141 174.04 
L 90.222993 174.04 
L 90.222993 170.737778 
L 88.772141 170.737778 
z
" style="fill:#ff0000;opacity:0.8;"/>
   </g>
   <g id="patch_17">
    <path clip-path="url(#pc0e700eaf5)" d="M 90.222993 174.04 
L 91.673844 174.04 
L 91.673844 172.388889 
L 90.222993 172.388889 
z
" style="fill:#ff0000;opacity:0.8;"/>
   </g>
   <g id="patch_18">
    <path clip-path="url(#pc0e700eaf5)" d="M 91.673844 174.04 
L 93.124696 174.04 
L 93.124696 166.61 
L 91.673844 166.61 
z
" style="fill:#ff0000;opacity:0.8;"/>
   </g>
   <g id="patch_19">
    <path clip-path="url(#pc0e700eaf5)" d="M 93.124696 174.04 
L 94.575547 174.04 
L 94.575547 170.737778 
L 93.124696 170.737778 
z
" style="fill:#ff0000;opacity:0.8;"/>
   </g>
   <g id="patch_20">
    <path clip-path="url(#pc0e700eaf5)" d="M 94.575547 174.04 
L 96.026399 174.04 
L 96.026399 169.086667 
L 94.575547 169.086667 
z
" style="fill:#ff0000;opacity:0.8;"/>
   </g>
   <g id="patch_21">
    <path clip-path="url(#pc0e700eaf5)" d="M 96.026399 174.04 
L 97.477251 174.04 
L 97.477251 157.528889 
L 96.026399 157.528889 
z
" style="fill:#ff0000;opacity:0.8;"/>
   </g>
   <g id="patch_22">
    <path clip-path="url(#pc0e700eaf5)" d="M 97.477251 174.04 
L 98.928102 174.04 
L 98.928102 164.958889 
L 97.477251 164.958889 
z
" style="fill:#ff0000;opacity:0.8;"/>
   </g>
   <g id="patch_23">
    <path clip-path="url(#pc0e700eaf5)" d="M 98.928102 174.04 
L 100.378954 174.04 
L 100.378954 166.61 
L 98.928102 166.61 
z
" style="fill:#ff0000;opacity:0.8;"/>
   </g>
   <g id="patch_24">
    <path clip-path="url(#pc0e700eaf5)" d="M 100.378954 174.04 
L 101.829805 174.04 
L 101.829805 169.086667 
L 100.378954 169.086667 
z
" style="fill:#ff0000;opacity:0.8;"/>
   </g>
   <g id="patch_25">
    <path clip-path="url(#pc0e700eaf5)" d="M 101.829805 174.04 
L 103.280657 174.04 
L 103.280657 168.261111 
L 101.829805 168.261111 
z
" style="fill:#ff0000;opacity:0.8;"/>
   </g>
   <g id="patch_26">
    <path clip-path="url(#pc0e700eaf5)" d="M 103.280657 174.04 
L 104.731509 174.04 
L 104.731509 168.261111 
L 103.280657 168.261111 
z
" style="fill:#ff0000;opacity:0.8;"/>
   </g>
   <g id="patch_27">
    <path clip-path="url(#pc0e700eaf5)" d="M 104.731509 174.04 
L 106.18236 174.04 
L 106.18236 160.005556 
L 104.731509 160.005556 
z
" style="fill:#ff0000;opacity:0.8;"/>
   </g>
   <g id="patch_28">
    <path clip-path="url(#pc0e700eaf5)" d="M 106.18236 174.04 
L 107.633212 174.04 
L 107.633212 137.715556 
L 106.18236 137.715556 
z
" style="fill:#ff0000;opacity:0.8;"/>
   </g>
   <g id="patch_29">
    <path clip-path="url(#pc0e700eaf5)" d="M 107.633212 174.04 
L 109.084063 174.04 
L 109.084063 150.098889 
L 107.633212 150.098889 
z
" style="fill:#ff0000;opacity:0.8;"/>
   </g>
   <g id="patch_30">
    <path clip-path="url(#pc0e700eaf5)" d="M 109.084063 174.04 
L 110.534915 174.04 
L 110.534915 160.831111 
L 109.084063 160.831111 
z
" style="fill:#ff0000;opacity:0.8;"/>
   </g>
   <g id="patch_31">
    <path clip-path="url(#pc0e700eaf5)" d="M 110.534915 174.04 
L 111.985766 174.04 
L 111.985766 67.543333 
L 110.534915 67.543333 
z
" style="fill:#ff0000;opacity:0.8;"/>
   </g>
   <g id="patch_32">
    <path clip-path="url(#pc0e700eaf5)" d="M 111.985766 174.04 
L 113.436618 174.04 
L 113.436618 136.064444 
L 111.985766 136.064444 
z
" style="fill:#ff0000;opacity:0.8;"/>
   </g>
   <g id="patch_33">
    <path clip-path="url(#pc0e700eaf5)" d="M 113.436618 174.04 
L 114.88747 174.04 
L 114.88747 97.263333 
L 113.436618 97.263333 
z
" style="fill:#ff0000;opacity:0.8;"/>
   </g>
   <g id="patch_34">
    <path clip-path="url(#pc0e700eaf5)" d="M 114.88747 174.04 
L 116.338321 174.04 
L 116.338321 98.088889 
L 114.88747 98.088889 
z
" style="fill:#ff0000;opacity:0.8;"/>
   </g>
   <g id="patch_35">
    <path clip-path="url(#pc0e700eaf5)" d="M 116.338321 174.04 
L 117.789173 174.04 
L 117.789173 96.437778 
L 116.338321 96.437778 
z
" style="fill:#ff0000;opacity:0.8;"/>
   </g>
   <g id="patch_36">
    <path clip-path="url(#pc0e700eaf5)" d="M 117.789173 174.04 
L 119.240024 174.04 
L 119.240024 117.902222 
L 117.789173 117.902222 
z
" style="fill:#ff0000;opacity:0.8;"/>
   </g>
   <g id="patch_37">
    <path clip-path="url(#pc0e700eaf5)" d="M 119.240024 174.04 
L 120.690876 174.04 
L 120.690876 104.693333 
L 119.240024 104.693333 
z
" style="fill:#ff0000;opacity:0.8;"/>
   </g>
   <g id="patch_38">
    <path clip-path="url(#pc0e700eaf5)" d="M 120.690876 174.04 
L 122.141727 174.04 
L 122.141727 75.798889 
L 120.690876 75.798889 
z
" style="fill:#ff0000;opacity:0.8;"/>
   </g>
   <g id="patch_39">
    <path clip-path="url(#pc0e700eaf5)" d="M 122.141727 174.04 
L 123.592579 174.04 
L 123.592579 29.567778 
L 122.141727 29.567778 
z
" style="fill:#ff0000;opacity:0.8;"/>
   </g>
   <g id="patch_40">
    <path clip-path="url(#pc0e700eaf5)" d="M 123.592579 174.04 
L 125.043431 174.04 
L 125.043431 91.484444 
L 123.592579 91.484444 
z
" style="fill:#ff0000;opacity:0.8;"/>
   </g>
   <g id="patch_41">
    <path clip-path="url(#pc0e700eaf5)" d="M 125.043431 174.04 
L 126.494282 174.04 
L 126.494282 61.764444 
L 125.043431 61.764444 
z
" style="fill:#ff0000;opacity:0.8;"/>
   </g>
   <g id="patch_42">
    <path clip-path="url(#pc0e700eaf5)" d="M 126.494282 174.04 
L 127.945134 174.04 
L 127.945134 83.228889 
L 126.494282 83.228889 
z
" style="fill:#ff0000;opacity:0.8;"/>
   </g>
   <g id="patch_43">
    <path clip-path="url(#pc0e700eaf5)" d="M 127.945134 174.04 
L 129.395985 174.04 
L 129.395985 134.413333 
L 127.945134 134.413333 
z
" style="fill:#ff0000;opacity:0.8;"/>
   </g>
   <g id="patch_44">
    <path clip-path="url(#pc0e700eaf5)" d="M 129.395985 174.04 
L 130.846837 174.04 
L 130.846837 109.646667 
L 129.395985 109.646667 
z
" style="fill:#ff0000;opacity:0.8;"/>
   </g>
   <g id="patch_45">
    <path clip-path="url(#pc0e700eaf5)" d="M 130.846837 174.04 
L 132.297689 174.04 
L 132.297689 127.808889 
L 130.846837 127.808889 
z
" style="fill:#ff0000;opacity:0.8;"/>
   </g>
   <g id="patch_46">
    <path clip-path="url(#pc0e700eaf5)" d="M 132.297689 174.04 
L 133.74854 174.04 
L 133.74854 154.226667 
L 132.297689 154.226667 
z
" style="fill:#ff0000;opacity:0.8;"/>
   </g>
   <g id="patch_47">
    <path clip-path="url(#pc0e700eaf5)" d="M 133.74854 174.04 
L 135.199392 174.04 
L 135.199392 159.18 
L 133.74854 159.18 
z
" style="fill:#ff0000;opacity:0.8;"/>
   </g>
   <g id="patch_48">
    <path clip-path="url(#pc0e700eaf5)" d="M 135.199392 174.04 
L 136.650243 174.04 
L 136.650243 149.273333 
L 135.199392 149.273333 
z
" style="fill:#ff0000;opacity:0.8;"/>
   </g>
   <g id="patch_49">
    <path clip-path="url(#pc0e700eaf5)" d="M 136.650243 174.04 
L 138.101095 174.04 
L 138.101095 164.958889 
L 136.650243 164.958889 
z
" style="fill:#ff0000;opacity:0.8;"/>
   </g>
   <g id="patch_50">
    <path clip-path="url(#pc0e700eaf5)" d="M 138.101095 174.04 
L 139.551946 174.04 
L 139.551946 147.622222 
L 138.101095 147.622222 
z
" style="fill:#ff0000;opacity:0.8;"/>
   </g>
   <g id="patch_51">
    <path clip-path="url(#pc0e700eaf5)" d="M 139.551946 174.04 
L 141.002798 174.04 
L 141.002798 164.133333 
L 139.551946 164.133333 
z
" style="fill:#ff0000;opacity:0.8;"/>
   </g>
   <g id="patch_52">
    <path clip-path="url(#pc0e700eaf5)" d="M 141.002798 174.04 
L 142.45365 174.04 
L 142.45365 164.133333 
L 141.002798 164.133333 
z
" style="fill:#ff0000;opacity:0.8;"/>
   </g>
   <g id="patch_53">
    <path clip-path="url(#pc0e700eaf5)" d="M 142.45365 174.04 
L 143.904501 174.04 
L 143.904501 169.912222 
L 142.45365 169.912222 
z
" style="fill:#ff0000;opacity:0.8;"/>
   </g>
   <g id="patch_54">
    <path clip-path="url(#pc0e700eaf5)" d="M 143.904501 174.04 
L 145.355353 174.04 
L 145.355353 160.005556 
L 143.904501 160.005556 
z
" style="fill:#ff0000;opacity:0.8;"/>
   </g>
   <g id="patch_55">
    <path clip-path="url(#pc0e700eaf5)" d="M 145.355353 174.04 
L 146.806204 174.04 
L 146.806204 166.61 
L 145.355353 166.61 
z
" style="fill:#ff0000;opacity:0.8;"/>
   </g>
   <g id="patch_56">
    <path clip-path="url(#pc0e700eaf5)" d="M 146.806204 174.04 
L 148.257056 174.04 
L 148.257056 155.877778 
L 146.806204 155.877778 
z
" style="fill:#ff0000;opacity:0.8;"/>
   </g>
   <g id="patch_57">
    <path clip-path="url(#pc0e700eaf5)" d="M 148.257056 174.04 
L 149.707908 174.04 
L 149.707908 166.61 
L 148.257056 166.61 
z
" style="fill:#ff0000;opacity:0.8;"/>
   </g>
   <g id="patch_58">
    <path clip-path="url(#pc0e700eaf5)" d="M 149.707908 174.04 
L 151.158759 174.04 
L 151.158759 162.482222 
L 149.707908 162.482222 
z
" style="fill:#ff0000;opacity:0.8;"/>
   </g>
   <g id="patch_59">
    <path clip-path="url(#pc0e700eaf5)" d="M 151.158759 174.04 
L 152.609611 174.04 
L 152.609611 169.086667 
L 151.158759 169.086667 
z
" style="fill:#ff0000;opacity:0.8;"/>
   </g>
   <g id="patch_60">
    <path clip-path="url(#pc0e700eaf5)" d="M 152.609611 174.04 
L 154.060462 174.04 
L 154.060462 164.133333 
L 152.609611 164.133333 
z
" style="fill:#ff0000;opacity:0.8;"/>
   </g>
   <g id="patch_61">
    <path clip-path="url(#pc0e700eaf5)" d="M 154.060462 174.04 
L 155.511314 174.04 
L 155.511314 169.086667 
L 154.060462 169.086667 
z
" style="fill:#ff0000;opacity:0.8;"/>
   </g>
   <g id="patch_62">
    <path clip-path="url(#pc0e700eaf5)" d="M 155.511314 174.04 
L 156.962165 174.04 
L 156.962165 170.737778 
L 155.511314 170.737778 
z
" style="fill:#ff0000;opacity:0.8;"/>
   </g>
   <g id="patch_63">
    <path clip-path="url(#pc0e700eaf5)" d="M 156.962165 174.04 
L 158.413017 174.04 
L 158.413017 165.784444 
L 156.962165 165.784444 
z
" style="fill:#ff0000;opacity:0.8;"/>
   </g>
   <g id="patch_64">
    <path clip-path="url(#pc0e700eaf5)" d="M 158.413017 174.04 
L 159.863869 174.04 
L 159.863869 168.261111 
L 158.413017 168.261111 
z
" style="fill:#ff0000;opacity:0.8;"/>
   </g>
   <g id="patch_65">
    <path clip-path="url(#pc0e700eaf5)" d="M 159.863869 174.04 
L 161.31472 174.04 
L 161.31472 169.086667 
L 159.863869 169.086667 
z
" style="fill:#ff0000;opacity:0.8;"/>
   </g>
   <g id="patch_66">
    <path clip-path="url(#pc0e700eaf5)" d="M 161.31472 174.04 
L 162.765572 174.04 
L 162.765572 167.435556 
L 161.31472 167.435556 
z
" style="fill:#ff0000;opacity:0.8;"/>
   </g>
   <g id="patch_67">
    <path clip-path="url(#pc0e700eaf5)" d="M 162.765572 174.04 
L 164.216423 174.04 
L 164.216423 167.435556 
L 162.765572 167.435556 
z
" style="fill:#ff0000;opacity:0.8;"/>
   </g>
   <g id="patch_68">
    <path clip-path="url(#pc0e700eaf5)" d="M 164.216423 174.04 
L 165.667275 174.04 
L 165.667275 173.214444 
L 164.216423 173.214444 
z
" style="fill:#ff0000;opacity:0.8;"/>
   </g>
   <g id="patch_69">
    <path clip-path="url(#pc0e700eaf5)" d="M 165.667275 174.04 
L 167.118127 174.04 
L 167.118127 172.388889 
L 165.667275 172.388889 
z
" style="fill:#ff0000;opacity:0.8;"/>
   </g>
   <g id="patch_70">
    <path clip-path="url(#pc0e700eaf5)" d="M 167.118127 174.04 
L 168.568978 174.04 
L 168.568978 172.388889 
L 167.118127 172.388889 
z
" style="fill:#ff0000;opacity:0.8;"/>
   </g>
   <g id="patch_71">
    <path clip-path="url(#pc0e700eaf5)" d="M 168.568978 174.04 
L 170.01983 174.04 
L 170.01983 173.214444 
L 168.568978 173.214444 
z
" style="fill:#ff0000;opacity:0.8;"/>
   </g>
   <g id="patch_72">
    <path clip-path="url(#pc0e700eaf5)" d="M 170.01983 174.04 
L 171.470681 174.04 
L 171.470681 173.214444 
L 170.01983 173.214444 
z
" style="fill:#ff0000;opacity:0.8;"/>
   </g>
   <g id="patch_73">
    <path clip-path="url(#pc0e700eaf5)" d="M 171.470681 174.04 
L 172.921533 174.04 
L 172.921533 172.388889 
L 171.470681 172.388889 
z
" style="fill:#ff0000;opacity:0.8;"/>
   </g>
   <g id="patch_74">
    <path clip-path="url(#pc0e700eaf5)" d="M 172.921533 174.04 
L 174.372384 174.04 
L 174.372384 171.563333 
L 172.921533 171.563333 
z
" style="fill:#ff0000;opacity:0.8;"/>
   </g>
   <g id="patch_75">
    <path clip-path="url(#pc0e700eaf5)" d="M 174.372384 174.04 
L 175.823236 174.04 
L 175.823236 172.388889 
L 174.372384 172.388889 
z
" style="fill:#ff0000;opacity:0.8;"/>
   </g>
   <g id="patch_76">
    <path clip-path="url(#pc0e700eaf5)" d="M 175.823236 174.04 
L 177.274088 174.04 
L 177.274088 174.04 
L 175.823236 174.04 
z
" style="fill:#ff0000;opacity:0.8;"/>
   </g>
   <g id="patch_77">
    <path clip-path="url(#pc0e700eaf5)" d="M 177.274088 174.04 
L 178.724939 174.04 
L 178.724939 174.04 
L 177.274088 174.04 
z
" style="fill:#ff0000;opacity:0.8;"/>
   </g>
   <g id="patch_78">
    <path clip-path="url(#pc0e700eaf5)" d="M 178.724939 174.04 
L 180.175791 174.04 
L 180.175791 174.04 
L 178.724939 174.04 
z
" style="fill:#ff0000;opacity:0.8;"/>
   </g>
   <g id="patch_79">
    <path clip-path="url(#pc0e700eaf5)" d="M 180.175791 174.04 
L 181.626642 174.04 
L 181.626642 173.214444 
L 180.175791 173.214444 
z
" style="fill:#ff0000;opacity:0.8;"/>
   </g>
   <g id="patch_80">
    <path clip-path="url(#pc0e700eaf5)" d="M 181.626642 174.04 
L 183.077494 174.04 
L 183.077494 173.214444 
L 181.626642 173.214444 
z
" style="fill:#ff0000;opacity:0.8;"/>
   </g>
   <g id="patch_81">
    <path clip-path="url(#pc0e700eaf5)" d="M 183.077494 174.04 
L 184.528345 174.04 
L 184.528345 174.04 
L 183.077494 174.04 
z
" style="fill:#ff0000;opacity:0.8;"/>
   </g>
   <g id="patch_82">
    <path clip-path="url(#pc0e700eaf5)" d="M 184.528345 174.04 
L 185.979197 174.04 
L 185.979197 174.04 
L 184.528345 174.04 
z
" style="fill:#ff0000;opacity:0.8;"/>
   </g>
   <g id="patch_83">
    <path clip-path="url(#pc0e700eaf5)" d="M 185.979197 174.04 
L 187.430049 174.04 
L 187.430049 171.563333 
L 185.979197 171.563333 
z
" style="fill:#ff0000;opacity:0.8;"/>
   </g>
   <g id="patch_84">
    <path clip-path="url(#pc0e700eaf5)" d="M 187.430049 174.04 
L 188.8809 174.04 
L 188.8809 173.214444 
L 187.430049 173.214444 
z
" style="fill:#ff0000;opacity:0.8;"/>
   </g>
   <g id="patch_85">
    <path clip-path="url(#pc0e700eaf5)" d="M 188.8809 174.04 
L 190.331752 174.04 
L 190.331752 174.04 
L 188.8809 174.04 
z
" style="fill:#ff0000;opacity:0.8;"/>
   </g>
   <g id="patch_86">
    <path clip-path="url(#pc0e700eaf5)" d="M 190.331752 174.04 
L 191.782603 174.04 
L 191.782603 169.086667 
L 190.331752 169.086667 
z
" style="fill:#ff0000;opacity:0.8;"/>
   </g>
   <g id="patch_87">
    <path clip-path="url(#pc0e700eaf5)" d="M 191.782603 174.04 
L 193.233455 174.04 
L 193.233455 174.04 
L 191.782603 174.04 
z
" style="fill:#ff0000;opacity:0.8;"/>
   </g>
   <g id="patch_88">
    <path clip-path="url(#pc0e700eaf5)" d="M 193.233455 174.04 
L 194.684307 174.04 
L 194.684307 172.388889 
L 193.233455 172.388889 
z
" style="fill:#ff0000;opacity:0.8;"/>
   </g>
   <g id="patch_89">
    <path clip-path="url(#pc0e700eaf5)" d="M 194.684307 174.04 
L 196.135158 174.04 
L 196.135158 173.214444 
L 194.684307 173.214444 
z
" style="fill:#ff0000;opacity:0.8;"/>
   </g>
   <g id="patch_90">
    <path clip-path="url(#pc0e700eaf5)" d="M 196.135158 174.04 
L 197.58601 174.04 
L 197.58601 169.086667 
L 196.135158 169.086667 
z
" style="fill:#ff0000;opacity:0.8;"/>
   </g>
   <g id="patch_91">
    <path clip-path="url(#pc0e700eaf5)" d="M 197.58601 174.04 
L 199.036861 174.04 
L 199.036861 167.435556 
L 197.58601 167.435556 
z
" style="fill:#ff0000;opacity:0.8;"/>
   </g>
   <g id="patch_92">
    <path clip-path="url(#pc0e700eaf5)" d="M 199.036861 174.04 
L 200.487713 174.04 
L 200.487713 173.214444 
L 199.036861 173.214444 
z
" style="fill:#ff0000;opacity:0.8;"/>
   </g>
   <g id="patch_93">
    <path clip-path="url(#pc0e700eaf5)" d="M 200.487713 174.04 
L 201.938564 174.04 
L 201.938564 170.737778 
L 200.487713 170.737778 
z
" style="fill:#ff0000;opacity:0.8;"/>
   </g>
   <g id="patch_94">
    <path clip-path="url(#pc0e700eaf5)" d="M 201.938564 174.04 
L 203.389416 174.04 
L 203.389416 172.388889 
L 201.938564 172.388889 
z
" style="fill:#ff0000;opacity:0.8;"/>
   </g>
   <g id="patch_95">
    <path clip-path="url(#pc0e700eaf5)" d="M 203.389416 174.04 
L 204.840268 174.04 
L 204.840268 171.563333 
L 203.389416 171.563333 
z
" style="fill:#ff0000;opacity:0.8;"/>
   </g>
   <g id="patch_96">
    <path clip-path="url(#pc0e700eaf5)" d="M 204.840268 174.04 
L 206.291119 174.04 
L 206.291119 173.214444 
L 204.840268 173.214444 
z
" style="fill:#ff0000;opacity:0.8;"/>
   </g>
   <g id="patch_97">
    <path clip-path="url(#pc0e700eaf5)" d="M 206.291119 174.04 
L 207.741971 174.04 
L 207.741971 163.307778 
L 206.291119 163.307778 
z
" style="fill:#ff0000;opacity:0.8;"/>
   </g>
   <g id="patch_98">
    <path clip-path="url(#pc0e700eaf5)" d="M 207.741971 174.04 
L 209.192822 174.04 
L 209.192822 138.541111 
L 207.741971 138.541111 
z
" style="fill:#ff0000;opacity:0.8;"/>
   </g>
   <g id="patch_99">
    <path clip-path="url(#pc0e700eaf5)" d="M 209.192822 174.04 
L 210.643674 174.04 
L 210.643674 150.924444 
L 209.192822 150.924444 
z
" style="fill:#ff0000;opacity:0.8;"/>
   </g>
   <g id="patch_100">
    <path clip-path="url(#pc0e700eaf5)" d="M 210.643674 174.04 
L 212.094526 174.04 
L 212.094526 162.482222 
L 210.643674 162.482222 
z
" style="fill:#ff0000;opacity:0.8;"/>
   </g>
   <g id="patch_101">
    <path clip-path="url(#pc0e700eaf5)" d="M 212.094526 174.04 
L 213.545377 174.04 
L 213.545377 166.61 
L 212.094526 166.61 
z
" style="fill:#ff0000;opacity:0.8;"/>
   </g>
   <g id="patch_102">
    <path clip-path="url(#pc0e700eaf5)" d="M 213.545377 174.04 
L 214.996229 174.04 
L 214.996229 167.435556 
L 213.545377 167.435556 
z
" style="fill:#ff0000;opacity:0.8;"/>
   </g>
   <g id="patch_103">
    <path clip-path="url(#pc0e700eaf5)" d="M 214.996229 174.04 
L 216.44708 174.04 
L 216.44708 169.912222 
L 214.996229 169.912222 
z
" style="fill:#ff0000;opacity:0.8;"/>
   </g>
   <g id="patch_104">
    <path clip-path="url(#pc0e700eaf5)" d="M 216.44708 174.04 
L 217.897932 174.04 
L 217.897932 169.912222 
L 216.44708 169.912222 
z
" style="fill:#ff0000;opacity:0.8;"/>
   </g>
   <g id="patch_105">
    <path clip-path="url(#pc0e700eaf5)" d="M 217.897932 174.04 
L 219.348783 174.04 
L 219.348783 164.958889 
L 217.897932 164.958889 
z
" style="fill:#ff0000;opacity:0.8;"/>
   </g>
   <g id="patch_106">
    <path clip-path="url(#pc0e700eaf5)" d="M 219.348783 174.04 
L 220.799635 174.04 
L 220.799635 162.482222 
L 219.348783 162.482222 
z
" style="fill:#ff0000;opacity:0.8;"/>
   </g>
   <g id="patch_107">
    <path clip-path="url(#pc0e700eaf5)" d="M 220.799635 174.04 
L 222.250487 174.04 
L 222.250487 157.528889 
L 220.799635 157.528889 
z
" style="fill:#ff0000;opacity:0.8;"/>
   </g>
   <g id="patch_108">
    <path clip-path="url(#pc0e700eaf5)" d="M 222.250487 174.04 
L 223.701338 174.04 
L 223.701338 164.958889 
L 222.250487 164.958889 
z
" style="fill:#ff0000;opacity:0.8;"/>
   </g>
   <g id="patch_109">
    <path clip-path="url(#pc0e700eaf5)" d="M 223.701338 174.04 
L 225.15219 174.04 
L 225.15219 146.796667 
L 223.701338 146.796667 
z
" style="fill:#ff0000;opacity:0.8;"/>
   </g>
   <g id="patch_110">
    <path clip-path="url(#pc0e700eaf5)" d="M 225.15219 174.04 
L 226.603041 174.04 
L 226.603041 174.04 
L 225.15219 174.04 
z
" style="fill:#ff0000;opacity:0.8;"/>
   </g>
   <g id="patch_111">
    <path clip-path="url(#pc0e700eaf5)" d="M 226.603041 174.04 
L 228.053893 174.04 
L 228.053893 172.388889 
L 226.603041 172.388889 
z
" style="fill:#ff0000;opacity:0.8;"/>
   </g>
   <g id="patch_112">
    <path clip-path="url(#pc0e700eaf5)" d="M 228.053893 174.04 
L 229.504745 174.04 
L 229.504745 171.563333 
L 228.053893 171.563333 
z
" style="fill:#ff0000;opacity:0.8;"/>
   </g>
   <g id="patch_113">
    <path clip-path="url(#pc0e700eaf5)" d="M 229.504745 174.04 
L 230.955596 174.04 
L 230.955596 171.563333 
L 229.504745 171.563333 
z
" style="fill:#ff0000;opacity:0.8;"/>
   </g>
   <g id="patch_114">
    <path clip-path="url(#pc0e700eaf5)" d="M 230.955596 174.04 
L 232.406448 174.04 
L 232.406448 173.214444 
L 230.955596 173.214444 
z
" style="fill:#ff0000;opacity:0.8;"/>
   </g>
   <g id="patch_115">
    <path clip-path="url(#pc0e700eaf5)" d="M 232.406448 174.04 
L 233.857299 174.04 
L 233.857299 169.086667 
L 232.406448 169.086667 
z
" style="fill:#ff0000;opacity:0.8;"/>
   </g>
   <g id="patch_116">
    <path clip-path="url(#pc0e700eaf5)" d="M 233.857299 174.04 
L 235.308151 174.04 
L 235.308151 174.04 
L 233.857299 174.04 
z
" style="fill:#ff0000;opacity:0.8;"/>
   </g>
   <g id="patch_117">
    <path clip-path="url(#pc0e700eaf5)" d="M 235.308151 174.04 
L 236.759002 174.04 
L 236.759002 174.04 
L 235.308151 174.04 
z
" style="fill:#ff0000;opacity:0.8;"/>
   </g>
   <g id="patch_118">
    <path clip-path="url(#pc0e700eaf5)" d="M 236.759002 174.04 
L 238.209854 174.04 
L 238.209854 171.563333 
L 236.759002 171.563333 
z
" style="fill:#ff0000;opacity:0.8;"/>
   </g>
   <g id="patch_119">
    <path clip-path="url(#pc0e700eaf5)" d="M 238.209854 174.04 
L 239.660706 174.04 
L 239.660706 174.04 
L 238.209854 174.04 
z
" style="fill:#ff0000;opacity:0.8;"/>
   </g>
   <g id="patch_120">
    <path clip-path="url(#pc0e700eaf5)" d="M 239.660706 174.04 
L 241.111557 174.04 
L 241.111557 173.214444 
L 239.660706 173.214444 
z
" style="fill:#ff0000;opacity:0.8;"/>
   </g>
   <g id="patch_121">
    <path clip-path="url(#pc0e700eaf5)" d="M 241.111557 174.04 
L 242.562409 174.04 
L 242.562409 173.214444 
L 241.111557 173.214444 
z
" style="fill:#ff0000;opacity:0.8;"/>
   </g>
   <g id="patch_122">
    <path clip-path="url(#pc0e700eaf5)" d="M 242.562409 174.04 
L 244.01326 174.04 
L 244.01326 174.04 
L 242.562409 174.04 
z
" style="fill:#ff0000;opacity:0.8;"/>
   </g>
   <g id="patch_123">
    <path clip-path="url(#pc0e700eaf5)" d="M 244.01326 174.04 
L 245.464112 174.04 
L 245.464112 174.04 
L 244.01326 174.04 
z
" style="fill:#ff0000;opacity:0.8;"/>
   </g>
   <g id="patch_124">
    <path clip-path="url(#pc0e700eaf5)" d="M 245.464112 174.04 
L 246.914964 174.04 
L 246.914964 174.04 
L 245.464112 174.04 
z
" style="fill:#ff0000;opacity:0.8;"/>
   </g>
   <g id="patch_125">
    <path clip-path="url(#pc0e700eaf5)" d="M 246.914964 174.04 
L 248.365815 174.04 
L 248.365815 174.04 
L 246.914964 174.04 
z
" style="fill:#ff0000;opacity:0.8;"/>
   </g>
   <g id="patch_126">
    <path clip-path="url(#pc0e700eaf5)" d="M 248.365815 174.04 
L 249.816667 174.04 
L 249.816667 173.214444 
L 248.365815 173.214444 
z
" style="fill:#ff0000;opacity:0.8;"/>
   </g>
   <g id="patch_127">
    <path clip-path="url(#pc0e700eaf5)" d="M 249.816667 174.04 
L 251.267518 174.04 
L 251.267518 174.04 
L 249.816667 174.04 
z
" style="fill:#ff0000;opacity:0.8;"/>
   </g>
   <g id="patch_128">
    <path clip-path="url(#pc0e700eaf5)" d="M 251.267518 174.04 
L 252.71837 174.04 
L 252.71837 173.214444 
L 251.267518 173.214444 
z
" style="fill:#ff0000;opacity:0.8;"/>
   </g>
   <g id="patch_129">
    <path clip-path="url(#pc0e700eaf5)" d="M 252.71837 174.04 
L 254.169221 174.04 
L 254.169221 172.388889 
L 252.71837 172.388889 
z
" style="fill:#ff0000;opacity:0.8;"/>
   </g>
   <g id="patch_130">
    <path clip-path="url(#pc0e700eaf5)" d="M 254.169221 174.04 
L 255.620073 174.04 
L 255.620073 174.04 
L 254.169221 174.04 
z
" style="fill:#ff0000;opacity:0.8;"/>
   </g>
   <g id="patch_131">
    <path clip-path="url(#pc0e700eaf5)" d="M 255.620073 174.04 
L 257.070925 174.04 
L 257.070925 174.04 
L 255.620073 174.04 
z
" style="fill:#ff0000;opacity:0.8;"/>
   </g>
   <g id="patch_132">
    <path clip-path="url(#pc0e700eaf5)" d="M 257.070925 174.04 
L 258.521776 174.04 
L 258.521776 173.214444 
L 257.070925 173.214444 
z
" style="fill:#ff0000;opacity:0.8;"/>
   </g>
   <g id="patch_133">
    <path clip-path="url(#pc0e700eaf5)" d="M 258.521776 174.04 
L 259.972628 174.04 
L 259.972628 174.04 
L 258.521776 174.04 
z
" style="fill:#ff0000;opacity:0.8;"/>
   </g>
   <g id="patch_134">
    <path clip-path="url(#pc0e700eaf5)" d="M 259.972628 174.04 
L 261.423479 174.04 
L 261.423479 173.214444 
L 259.972628 173.214444 
z
" style="fill:#ff0000;opacity:0.8;"/>
   </g>
   <g id="patch_135">
    <path clip-path="url(#pc0e700eaf5)" d="M 261.423479 174.04 
L 262.874331 174.04 
L 262.874331 172.388889 
L 261.423479 172.388889 
z
" style="fill:#ff0000;opacity:0.8;"/>
   </g>
   <g id="patch_136">
    <path clip-path="url(#pc0e700eaf5)" d="M 262.874331 174.04 
L 264.325182 174.04 
L 264.325182 173.214444 
L 262.874331 173.214444 
z
" style="fill:#ff0000;opacity:0.8;"/>
   </g>
   <g id="patch_137">
    <path clip-path="url(#pc0e700eaf5)" d="M 264.325182 174.04 
L 265.776034 174.04 
L 265.776034 173.214444 
L 264.325182 173.214444 
z
" style="fill:#ff0000;opacity:0.8;"/>
   </g>
   <g id="patch_138">
    <path clip-path="url(#pc0e700eaf5)" d="M 265.776034 174.04 
L 267.226886 174.04 
L 267.226886 171.563333 
L 265.776034 171.563333 
z
" style="fill:#ff0000;opacity:0.8;"/>
   </g>
   <g id="patch_139">
    <path clip-path="url(#pc0e700eaf5)" d="M 267.226886 174.04 
L 268.677737 174.04 
L 268.677737 173.214444 
L 267.226886 173.214444 
z
" style="fill:#ff0000;opacity:0.8;"/>
   </g>
   <g id="patch_140">
    <path clip-path="url(#pc0e700eaf5)" d="M 268.677737 174.04 
L 270.128589 174.04 
L 270.128589 173.214444 
L 268.677737 173.214444 
z
" style="fill:#ff0000;opacity:0.8;"/>
   </g>
   <g id="patch_141">
    <path clip-path="url(#pc0e700eaf5)" d="M 270.128589 174.04 
L 271.57944 174.04 
L 271.57944 174.04 
L 270.128589 174.04 
z
" style="fill:#ff0000;opacity:0.8;"/>
   </g>
   <g id="patch_142">
    <path clip-path="url(#pc0e700eaf5)" d="M 271.57944 174.04 
L 273.030292 174.04 
L 273.030292 174.04 
L 271.57944 174.04 
z
" style="fill:#ff0000;opacity:0.8;"/>
   </g>
   <g id="patch_143">
    <path clip-path="url(#pc0e700eaf5)" d="M 273.030292 174.04 
L 274.481144 174.04 
L 274.481144 173.214444 
L 273.030292 173.214444 
z
" style="fill:#ff0000;opacity:0.8;"/>
   </g>
   <g id="patch_144">
    <path clip-path="url(#pc0e700eaf5)" d="M 274.481144 174.04 
L 275.931995 174.04 
L 275.931995 174.04 
L 274.481144 174.04 
z
" style="fill:#ff0000;opacity:0.8;"/>
   </g>
   <g id="patch_145">
    <path clip-path="url(#pc0e700eaf5)" d="M 275.931995 174.04 
L 277.382847 174.04 
L 277.382847 174.04 
L 275.931995 174.04 
z
" style="fill:#ff0000;opacity:0.8;"/>
   </g>
   <g id="patch_146">
    <path clip-path="url(#pc0e700eaf5)" d="M 277.382847 174.04 
L 278.833698 174.04 
L 278.833698 174.04 
L 277.382847 174.04 
z
" style="fill:#ff0000;opacity:0.8;"/>
   </g>
   <g id="patch_147">
    <path clip-path="url(#pc0e700eaf5)" d="M 278.833698 174.04 
L 280.28455 174.04 
L 280.28455 174.04 
L 278.833698 174.04 
z
" style="fill:#ff0000;opacity:0.8;"/>
   </g>
   <g id="patch_148">
    <path clip-path="url(#pc0e700eaf5)" d="M 280.28455 174.04 
L 281.735401 174.04 
L 281.735401 174.04 
L 280.28455 174.04 
z
" style="fill:#ff0000;opacity:0.8;"/>
   </g>
   <g id="patch_149">
    <path clip-path="url(#pc0e700eaf5)" d="M 281.735401 174.04 
L 283.186253 174.04 
L 283.186253 174.04 
L 281.735401 174.04 
z
" style="fill:#ff0000;opacity:0.8;"/>
   </g>
   <g id="patch_150">
    <path clip-path="url(#pc0e700eaf5)" d="M 283.186253 174.04 
L 284.637105 174.04 
L 284.637105 174.04 
L 283.186253 174.04 
z
" style="fill:#ff0000;opacity:0.8;"/>
   </g>
   <g id="patch_151">
    <path clip-path="url(#pc0e700eaf5)" d="M 284.637105 174.04 
L 286.087956 174.04 
L 286.087956 174.04 
L 284.637105 174.04 
z
" style="fill:#ff0000;opacity:0.8;"/>
   </g>
   <g id="patch_152">
    <path clip-path="url(#pc0e700eaf5)" d="M 286.087956 174.04 
L 287.538808 174.04 
L 287.538808 174.04 
L 286.087956 174.04 
z
" style="fill:#ff0000;opacity:0.8;"/>
   </g>
   <g id="patch_153">
    <path clip-path="url(#pc0e700eaf5)" d="M 287.538808 174.04 
L 288.989659 174.04 
L 288.989659 172.388889 
L 287.538808 172.388889 
z
" style="fill:#ff0000;opacity:0.8;"/>
   </g>
   <g id="patch_154">
    <path clip-path="url(#pc0e700eaf5)" d="M 288.989659 174.04 
L 290.440511 174.04 
L 290.440511 174.04 
L 288.989659 174.04 
z
" style="fill:#ff0000;opacity:0.8;"/>
   </g>
   <g id="patch_155">
    <path clip-path="url(#pc0e700eaf5)" d="M 290.440511 174.04 
L 291.891363 174.04 
L 291.891363 174.04 
L 290.440511 174.04 
z
" style="fill:#ff0000;opacity:0.8;"/>
   </g>
   <g id="patch_156">
    <path clip-path="url(#pc0e700eaf5)" d="M 291.891363 174.04 
L 293.342214 174.04 
L 293.342214 174.04 
L 291.891363 174.04 
z
" style="fill:#ff0000;opacity:0.8;"/>
   </g>
   <g id="patch_157">
    <path clip-path="url(#pc0e700eaf5)" d="M 293.342214 174.04 
L 294.793066 174.04 
L 294.793066 174.04 
L 293.342214 174.04 
z
" style="fill:#ff0000;opacity:0.8;"/>
   </g>
   <g id="patch_158">
    <path clip-path="url(#pc0e700eaf5)" d="M 294.793066 174.04 
L 296.243917 174.04 
L 296.243917 174.04 
L 294.793066 174.04 
z
" style="fill:#ff0000;opacity:0.8;"/>
   </g>
   <g id="patch_159">
    <path clip-path="url(#pc0e700eaf5)" d="M 296.243917 174.04 
L 297.694769 174.04 
L 297.694769 174.04 
L 296.243917 174.04 
z
" style="fill:#ff0000;opacity:0.8;"/>
   </g>
   <g id="patch_160">
    <path clip-path="url(#pc0e700eaf5)" d="M 297.694769 174.04 
L 299.14562 174.04 
L 299.14562 174.04 
L 297.694769 174.04 
z
" style="fill:#ff0000;opacity:0.8;"/>
   </g>
   <g id="patch_161">
    <path clip-path="url(#pc0e700eaf5)" d="M 299.14562 174.04 
L 300.596472 174.04 
L 300.596472 174.04 
L 299.14562 174.04 
z
" style="fill:#ff0000;opacity:0.8;"/>
   </g>
   <g id="patch_162">
    <path clip-path="url(#pc0e700eaf5)" d="M 300.596472 174.04 
L 302.047324 174.04 
L 302.047324 174.04 
L 300.596472 174.04 
z
" style="fill:#ff0000;opacity:0.8;"/>
   </g>
   <g id="patch_163">
    <path clip-path="url(#pc0e700eaf5)" d="M 302.047324 174.04 
L 303.498175 174.04 
L 303.498175 174.04 
L 302.047324 174.04 
z
" style="fill:#ff0000;opacity:0.8;"/>
   </g>
   <g id="patch_164">
    <path clip-path="url(#pc0e700eaf5)" d="M 303.498175 174.04 
L 304.949027 174.04 
L 304.949027 174.04 
L 303.498175 174.04 
z
" style="fill:#ff0000;opacity:0.8;"/>
   </g>
   <g id="patch_165">
    <path clip-path="url(#pc0e700eaf5)" d="M 304.949027 174.04 
L 306.399878 174.04 
L 306.399878 174.04 
L 304.949027 174.04 
z
" style="fill:#ff0000;opacity:0.8;"/>
   </g>
   <g id="patch_166">
    <path clip-path="url(#pc0e700eaf5)" d="M 306.399878 174.04 
L 307.85073 174.04 
L 307.85073 174.04 
L 306.399878 174.04 
z
" style="fill:#ff0000;opacity:0.8;"/>
   </g>
   <g id="patch_167">
    <path clip-path="url(#pc0e700eaf5)" d="M 307.85073 174.04 
L 309.301582 174.04 
L 309.301582 174.04 
L 307.85073 174.04 
z
" style="fill:#ff0000;opacity:0.8;"/>
   </g>
   <g id="patch_168">
    <path clip-path="url(#pc0e700eaf5)" d="M 309.301582 174.04 
L 310.752433 174.04 
L 310.752433 174.04 
L 309.301582 174.04 
z
" style="fill:#ff0000;opacity:0.8;"/>
   </g>
   <g id="patch_169">
    <path clip-path="url(#pc0e700eaf5)" d="M 310.752433 174.04 
L 312.203285 174.04 
L 312.203285 173.214444 
L 310.752433 173.214444 
z
" style="fill:#ff0000;opacity:0.8;"/>
   </g>
   <g id="patch_170">
    <path clip-path="url(#pc0e700eaf5)" d="M 312.203285 174.04 
L 313.654136 174.04 
L 313.654136 174.04 
L 312.203285 174.04 
z
" style="fill:#ff0000;opacity:0.8;"/>
   </g>
   <g id="patch_171">
    <path clip-path="url(#pc0e700eaf5)" d="M 313.654136 174.04 
L 315.104988 174.04 
L 315.104988 174.04 
L 313.654136 174.04 
z
" style="fill:#ff0000;opacity:0.8;"/>
   </g>
   <g id="patch_172">
    <path clip-path="url(#pc0e700eaf5)" d="M 315.104988 174.04 
L 316.555839 174.04 
L 316.555839 174.04 
L 315.104988 174.04 
z
" style="fill:#ff0000;opacity:0.8;"/>
   </g>
   <g id="patch_173">
    <path clip-path="url(#pc0e700eaf5)" d="M 316.555839 174.04 
L 318.006691 174.04 
L 318.006691 174.04 
L 316.555839 174.04 
z
" style="fill:#ff0000;opacity:0.8;"/>
   </g>
   <g id="patch_174">
    <path clip-path="url(#pc0e700eaf5)" d="M 318.006691 174.04 
L 319.457543 174.04 
L 319.457543 174.04 
L 318.006691 174.04 
z
" style="fill:#ff0000;opacity:0.8;"/>
   </g>
   <g id="patch_175">
    <path clip-path="url(#pc0e700eaf5)" d="M 319.457543 174.04 
L 320.908394 174.04 
L 320.908394 174.04 
L 319.457543 174.04 
z
" style="fill:#ff0000;opacity:0.8;"/>
   </g>
   <g id="patch_176">
    <path clip-path="url(#pc0e700eaf5)" d="M 320.908394 174.04 
L 322.359246 174.04 
L 322.359246 174.04 
L 320.908394 174.04 
z
" style="fill:#ff0000;opacity:0.8;"/>
   </g>
   <g id="patch_177">
    <path clip-path="url(#pc0e700eaf5)" d="M 322.359246 174.04 
L 323.810097 174.04 
L 323.810097 174.04 
L 322.359246 174.04 
z
" style="fill:#ff0000;opacity:0.8;"/>
   </g>
   <g id="patch_178">
    <path clip-path="url(#pc0e700eaf5)" d="M 323.810097 174.04 
L 325.260949 174.04 
L 325.260949 174.04 
L 323.810097 174.04 
z
" style="fill:#ff0000;opacity:0.8;"/>
   </g>
   <g id="patch_179">
    <path clip-path="url(#pc0e700eaf5)" d="M 325.260949 174.04 
L 326.7118 174.04 
L 326.7118 174.04 
L 325.260949 174.04 
z
" style="fill:#ff0000;opacity:0.8;"/>
   </g>
   <g id="patch_180">
    <path clip-path="url(#pc0e700eaf5)" d="M 326.7118 174.04 
L 328.162652 174.04 
L 328.162652 174.04 
L 326.7118 174.04 
z
" style="fill:#ff0000;opacity:0.8;"/>
   </g>
   <g id="patch_181">
    <path clip-path="url(#pc0e700eaf5)" d="M 328.162652 174.04 
L 329.613504 174.04 
L 329.613504 174.04 
L 328.162652 174.04 
z
" style="fill:#ff0000;opacity:0.8;"/>
   </g>
   <g id="patch_182">
    <path clip-path="url(#pc0e700eaf5)" d="M 329.613504 174.04 
L 331.064355 174.04 
L 331.064355 174.04 
L 329.613504 174.04 
z
" style="fill:#ff0000;opacity:0.8;"/>
   </g>
   <g id="patch_183">
    <path clip-path="url(#pc0e700eaf5)" d="M 331.064355 174.04 
L 332.515207 174.04 
L 332.515207 174.04 
L 331.064355 174.04 
z
" style="fill:#ff0000;opacity:0.8;"/>
   </g>
   <g id="patch_184">
    <path clip-path="url(#pc0e700eaf5)" d="M 332.515207 174.04 
L 333.966058 174.04 
L 333.966058 174.04 
L 332.515207 174.04 
z
" style="fill:#ff0000;opacity:0.8;"/>
   </g>
   <g id="patch_185">
    <path clip-path="url(#pc0e700eaf5)" d="M 333.966058 174.04 
L 335.41691 174.04 
L 335.41691 174.04 
L 333.966058 174.04 
z
" style="fill:#ff0000;opacity:0.8;"/>
   </g>
   <g id="patch_186">
    <path clip-path="url(#pc0e700eaf5)" d="M 335.41691 174.04 
L 336.867762 174.04 
L 336.867762 174.04 
L 335.41691 174.04 
z
" style="fill:#ff0000;opacity:0.8;"/>
   </g>
   <g id="patch_187">
    <path clip-path="url(#pc0e700eaf5)" d="M 336.867762 174.04 
L 338.318613 174.04 
L 338.318613 174.04 
L 336.867762 174.04 
z
" style="fill:#ff0000;opacity:0.8;"/>
   </g>
   <g id="patch_188">
    <path clip-path="url(#pc0e700eaf5)" d="M 338.318613 174.04 
L 339.769465 174.04 
L 339.769465 174.04 
L 338.318613 174.04 
z
" style="fill:#ff0000;opacity:0.8;"/>
   </g>
   <g id="patch_189">
    <path clip-path="url(#pc0e700eaf5)" d="M 339.769465 174.04 
L 341.220316 174.04 
L 341.220316 174.04 
L 339.769465 174.04 
z
" style="fill:#ff0000;opacity:0.8;"/>
   </g>
   <g id="patch_190">
    <path clip-path="url(#pc0e700eaf5)" d="M 341.220316 174.04 
L 342.671168 174.04 
L 342.671168 174.04 
L 341.220316 174.04 
z
" style="fill:#ff0000;opacity:0.8;"/>
   </g>
   <g id="patch_191">
    <path clip-path="url(#pc0e700eaf5)" d="M 342.671168 174.04 
L 344.122019 174.04 
L 344.122019 174.04 
L 342.671168 174.04 
z
" style="fill:#ff0000;opacity:0.8;"/>
   </g>
   <g id="patch_192">
    <path clip-path="url(#pc0e700eaf5)" d="M 344.122019 174.04 
L 345.572871 174.04 
L 345.572871 174.04 
L 344.122019 174.04 
z
" style="fill:#ff0000;opacity:0.8;"/>
   </g>
   <g id="patch_193">
    <path clip-path="url(#pc0e700eaf5)" d="M 345.572871 174.04 
L 347.023723 174.04 
L 347.023723 174.04 
L 345.572871 174.04 
z
" style="fill:#ff0000;opacity:0.8;"/>
   </g>
   <g id="patch_194">
    <path clip-path="url(#pc0e700eaf5)" d="M 347.023723 174.04 
L 348.474574 174.04 
L 348.474574 174.04 
L 347.023723 174.04 
z
" style="fill:#ff0000;opacity:0.8;"/>
   </g>
   <g id="patch_195">
    <path clip-path="url(#pc0e700eaf5)" d="M 348.474574 174.04 
L 349.925426 174.04 
L 349.925426 173.214444 
L 348.474574 173.214444 
z
" style="fill:#ff0000;opacity:0.8;"/>
   </g>
   <g id="matplotlib.axis_1">
    <g id="xtick_1">
     <g id="line2d_1">
      <defs>
       <path d="M 0 0 
L 0 3.5 
" id="m58b4aca2c6" style="stroke:#000000;stroke-width:0.8;"/>
      </defs>
      <g>
       <use style="stroke:#000000;stroke-width:0.8;" x="51.05" xlink:href="#m58b4aca2c6" y="174.04"/>
      </g>
     </g>
     <g id="text_1">
      <!-- 0 -->
      <g transform="translate(47.86875 188.638438)scale(0.1 -0.1)">
       <defs>
        <path d="M 2034 4250 
Q 1547 4250 1301 3770 
Q 1056 3291 1056 2328 
Q 1056 1369 1301 889 
Q 1547 409 2034 409 
Q 2525 409 2770 889 
Q 3016 1369 3016 2328 
Q 3016 3291 2770 3770 
Q 2525 4250 2034 4250 
z
M 2034 4750 
Q 2819 4750 3233 4129 
Q 3647 3509 3647 2328 
Q 3647 1150 3233 529 
Q 2819 -91 2034 -91 
Q 1250 -91 836 529 
Q 422 1150 422 2328 
Q 422 3509 836 4129 
Q 1250 4750 2034 4750 
z
" id="DejaVuSans-30" transform="scale(0.015625)"/>
       </defs>
       <use xlink:href="#DejaVuSans-30"/>
      </g>
     </g>
    </g>
    <g id="xtick_2">
     <g id="line2d_2">
      <g>
       <use style="stroke:#000000;stroke-width:0.8;" x="105.456934" xlink:href="#m58b4aca2c6" y="174.04"/>
      </g>
     </g>
     <g id="text_2">
      <!-- 75 -->
      <g transform="translate(99.094434 188.638438)scale(0.1 -0.1)">
       <defs>
        <path d="M 525 4666 
L 3525 4666 
L 3525 4397 
L 1831 0 
L 1172 0 
L 2766 4134 
L 525 4134 
L 525 4666 
z
" id="DejaVuSans-37" transform="scale(0.015625)"/>
        <path d="M 691 4666 
L 3169 4666 
L 3169 4134 
L 1269 4134 
L 1269 2991 
Q 1406 3038 1543 3061 
Q 1681 3084 1819 3084 
Q 2600 3084 3056 2656 
Q 3513 2228 3513 1497 
Q 3513 744 3044 326 
Q 2575 -91 1722 -91 
Q 1428 -91 1123 -41 
Q 819 9 494 109 
L 494 744 
Q 775 591 1075 516 
Q 1375 441 1709 441 
Q 2250 441 2565 725 
Q 2881 1009 2881 1497 
Q 2881 1984 2565 2268 
Q 2250 2553 1709 2553 
Q 1456 2553 1204 2497 
Q 953 2441 691 2322 
L 691 4666 
z
" id="DejaVuSans-35" transform="scale(0.015625)"/>
       </defs>
       <use xlink:href="#DejaVuSans-37"/>
       <use x="63.623047" xlink:href="#DejaVuSans-35"/>
      </g>
     </g>
    </g>
    <g id="xtick_3">
     <g id="line2d_3">
      <g>
       <use style="stroke:#000000;stroke-width:0.8;" x="159.863869" xlink:href="#m58b4aca2c6" y="174.04"/>
      </g>
     </g>
     <g id="text_3">
      <!-- 150 -->
      <g transform="translate(150.320119 188.638438)scale(0.1 -0.1)">
       <defs>
        <path d="M 794 531 
L 1825 531 
L 1825 4091 
L 703 3866 
L 703 4441 
L 1819 4666 
L 2450 4666 
L 2450 531 
L 3481 531 
L 3481 0 
L 794 0 
L 794 531 
z
" id="DejaVuSans-31" transform="scale(0.015625)"/>
       </defs>
       <use xlink:href="#DejaVuSans-31"/>
       <use x="63.623047" xlink:href="#DejaVuSans-35"/>
       <use x="127.246094" xlink:href="#DejaVuSans-30"/>
      </g>
     </g>
    </g>
    <g id="xtick_4">
     <g id="line2d_4">
      <g>
       <use style="stroke:#000000;stroke-width:0.8;" x="214.270803" xlink:href="#m58b4aca2c6" y="174.04"/>
      </g>
     </g>
     <g id="text_4">
      <!-- 225 -->
      <g transform="translate(204.727053 188.638438)scale(0.1 -0.1)">
       <defs>
        <path d="M 1228 531 
L 3431 531 
L 3431 0 
L 469 0 
L 469 531 
Q 828 903 1448 1529 
Q 2069 2156 2228 2338 
Q 2531 2678 2651 2914 
Q 2772 3150 2772 3378 
Q 2772 3750 2511 3984 
Q 2250 4219 1831 4219 
Q 1534 4219 1204 4116 
Q 875 4013 500 3803 
L 500 4441 
Q 881 4594 1212 4672 
Q 1544 4750 1819 4750 
Q 2544 4750 2975 4387 
Q 3406 4025 3406 3419 
Q 3406 3131 3298 2873 
Q 3191 2616 2906 2266 
Q 2828 2175 2409 1742 
Q 1991 1309 1228 531 
z
" id="DejaVuSans-32" transform="scale(0.015625)"/>
       </defs>
       <use xlink:href="#DejaVuSans-32"/>
       <use x="63.623047" xlink:href="#DejaVuSans-32"/>
       <use x="127.246094" xlink:href="#DejaVuSans-35"/>
      </g>
     </g>
    </g>
    <g id="xtick_5">
     <g id="line2d_5">
      <g>
       <use style="stroke:#000000;stroke-width:0.8;" x="268.677737" xlink:href="#m58b4aca2c6" y="174.04"/>
      </g>
     </g>
     <g id="text_5">
      <!-- 300 -->
      <g transform="translate(259.133987 188.638438)scale(0.1 -0.1)">
       <defs>
        <path d="M 2597 2516 
Q 3050 2419 3304 2112 
Q 3559 1806 3559 1356 
Q 3559 666 3084 287 
Q 2609 -91 1734 -91 
Q 1441 -91 1130 -33 
Q 819 25 488 141 
L 488 750 
Q 750 597 1062 519 
Q 1375 441 1716 441 
Q 2309 441 2620 675 
Q 2931 909 2931 1356 
Q 2931 1769 2642 2001 
Q 2353 2234 1838 2234 
L 1294 2234 
L 1294 2753 
L 1863 2753 
Q 2328 2753 2575 2939 
Q 2822 3125 2822 3475 
Q 2822 3834 2567 4026 
Q 2313 4219 1838 4219 
Q 1578 4219 1281 4162 
Q 984 4106 628 3988 
L 628 4550 
Q 988 4650 1302 4700 
Q 1616 4750 1894 4750 
Q 2613 4750 3031 4423 
Q 3450 4097 3450 3541 
Q 3450 3153 3228 2886 
Q 3006 2619 2597 2516 
z
" id="DejaVuSans-33" transform="scale(0.015625)"/>
       </defs>
       <use xlink:href="#DejaVuSans-33"/>
       <use x="63.623047" xlink:href="#DejaVuSans-30"/>
       <use x="127.246094" xlink:href="#DejaVuSans-30"/>
      </g>
     </g>
    </g>
    <g id="xtick_6">
     <g id="line2d_6">
      <g>
       <use style="stroke:#000000;stroke-width:0.8;" x="323.084672" xlink:href="#m58b4aca2c6" y="174.04"/>
      </g>
     </g>
     <g id="text_6">
      <!-- 375 -->
      <g transform="translate(313.540922 188.638438)scale(0.1 -0.1)">
       <use xlink:href="#DejaVuSans-33"/>
       <use x="63.623047" xlink:href="#DejaVuSans-37"/>
       <use x="127.246094" xlink:href="#DejaVuSans-35"/>
      </g>
     </g>
    </g>
    <g id="text_7">
     <!-- Sequence Length -->
     <g transform="translate(156.624219 202.316563)scale(0.1 -0.1)">
      <defs>
       <path d="M 3425 4513 
L 3425 3897 
Q 3066 4069 2747 4153 
Q 2428 4238 2131 4238 
Q 1616 4238 1336 4038 
Q 1056 3838 1056 3469 
Q 1056 3159 1242 3001 
Q 1428 2844 1947 2747 
L 2328 2669 
Q 3034 2534 3370 2195 
Q 3706 1856 3706 1288 
Q 3706 609 3251 259 
Q 2797 -91 1919 -91 
Q 1588 -91 1214 -16 
Q 841 59 441 206 
L 441 856 
Q 825 641 1194 531 
Q 1563 422 1919 422 
Q 2459 422 2753 634 
Q 3047 847 3047 1241 
Q 3047 1584 2836 1778 
Q 2625 1972 2144 2069 
L 1759 2144 
Q 1053 2284 737 2584 
Q 422 2884 422 3419 
Q 422 4038 858 4394 
Q 1294 4750 2059 4750 
Q 2388 4750 2728 4690 
Q 3069 4631 3425 4513 
z
" id="DejaVuSans-53" transform="scale(0.015625)"/>
       <path d="M 3597 1894 
L 3597 1613 
L 953 1613 
Q 991 1019 1311 708 
Q 1631 397 2203 397 
Q 2534 397 2845 478 
Q 3156 559 3463 722 
L 3463 178 
Q 3153 47 2828 -22 
Q 2503 -91 2169 -91 
Q 1331 -91 842 396 
Q 353 884 353 1716 
Q 353 2575 817 3079 
Q 1281 3584 2069 3584 
Q 2775 3584 3186 3129 
Q 3597 2675 3597 1894 
z
M 3022 2063 
Q 3016 2534 2758 2815 
Q 2500 3097 2075 3097 
Q 1594 3097 1305 2825 
Q 1016 2553 972 2059 
L 3022 2063 
z
" id="DejaVuSans-65" transform="scale(0.015625)"/>
       <path d="M 947 1747 
Q 947 1113 1208 752 
Q 1469 391 1925 391 
Q 2381 391 2643 752 
Q 2906 1113 2906 1747 
Q 2906 2381 2643 2742 
Q 2381 3103 1925 3103 
Q 1469 3103 1208 2742 
Q 947 2381 947 1747 
z
M 2906 525 
Q 2725 213 2448 61 
Q 2172 -91 1784 -91 
Q 1150 -91 751 415 
Q 353 922 353 1747 
Q 353 2572 751 3078 
Q 1150 3584 1784 3584 
Q 2172 3584 2448 3432 
Q 2725 3281 2906 2969 
L 2906 3500 
L 3481 3500 
L 3481 -1331 
L 2906 -1331 
L 2906 525 
z
" id="DejaVuSans-71" transform="scale(0.015625)"/>
       <path d="M 544 1381 
L 544 3500 
L 1119 3500 
L 1119 1403 
Q 1119 906 1312 657 
Q 1506 409 1894 409 
Q 2359 409 2629 706 
Q 2900 1003 2900 1516 
L 2900 3500 
L 3475 3500 
L 3475 0 
L 2900 0 
L 2900 538 
Q 2691 219 2414 64 
Q 2138 -91 1772 -91 
Q 1169 -91 856 284 
Q 544 659 544 1381 
z
M 1991 3584 
L 1991 3584 
z
" id="DejaVuSans-75" transform="scale(0.015625)"/>
       <path d="M 3513 2113 
L 3513 0 
L 2938 0 
L 2938 2094 
Q 2938 2591 2744 2837 
Q 2550 3084 2163 3084 
Q 1697 3084 1428 2787 
Q 1159 2491 1159 1978 
L 1159 0 
L 581 0 
L 581 3500 
L 1159 3500 
L 1159 2956 
Q 1366 3272 1645 3428 
Q 1925 3584 2291 3584 
Q 2894 3584 3203 3211 
Q 3513 2838 3513 2113 
z
" id="DejaVuSans-6e" transform="scale(0.015625)"/>
       <path d="M 3122 3366 
L 3122 2828 
Q 2878 2963 2633 3030 
Q 2388 3097 2138 3097 
Q 1578 3097 1268 2742 
Q 959 2388 959 1747 
Q 959 1106 1268 751 
Q 1578 397 2138 397 
Q 2388 397 2633 464 
Q 2878 531 3122 666 
L 3122 134 
Q 2881 22 2623 -34 
Q 2366 -91 2075 -91 
Q 1284 -91 818 406 
Q 353 903 353 1747 
Q 353 2603 823 3093 
Q 1294 3584 2113 3584 
Q 2378 3584 2631 3529 
Q 2884 3475 3122 3366 
z
" id="DejaVuSans-63" transform="scale(0.015625)"/>
       <path id="DejaVuSans-20" transform="scale(0.015625)"/>
       <path d="M 628 4666 
L 1259 4666 
L 1259 531 
L 3531 531 
L 3531 0 
L 628 0 
L 628 4666 
z
" id="DejaVuSans-4c" transform="scale(0.015625)"/>
       <path d="M 2906 1791 
Q 2906 2416 2648 2759 
Q 2391 3103 1925 3103 
Q 1463 3103 1205 2759 
Q 947 2416 947 1791 
Q 947 1169 1205 825 
Q 1463 481 1925 481 
Q 2391 481 2648 825 
Q 2906 1169 2906 1791 
z
M 3481 434 
Q 3481 -459 3084 -895 
Q 2688 -1331 1869 -1331 
Q 1566 -1331 1297 -1286 
Q 1028 -1241 775 -1147 
L 775 -588 
Q 1028 -725 1275 -790 
Q 1522 -856 1778 -856 
Q 2344 -856 2625 -561 
Q 2906 -266 2906 331 
L 2906 616 
Q 2728 306 2450 153 
Q 2172 0 1784 0 
Q 1141 0 747 490 
Q 353 981 353 1791 
Q 353 2603 747 3093 
Q 1141 3584 1784 3584 
Q 2172 3584 2450 3431 
Q 2728 3278 2906 2969 
L 2906 3500 
L 3481 3500 
L 3481 434 
z
" id="DejaVuSans-67" transform="scale(0.015625)"/>
       <path d="M 1172 4494 
L 1172 3500 
L 2356 3500 
L 2356 3053 
L 1172 3053 
L 1172 1153 
Q 1172 725 1289 603 
Q 1406 481 1766 481 
L 2356 481 
L 2356 0 
L 1766 0 
Q 1100 0 847 248 
Q 594 497 594 1153 
L 594 3053 
L 172 3053 
L 172 3500 
L 594 3500 
L 594 4494 
L 1172 4494 
z
" id="DejaVuSans-74" transform="scale(0.015625)"/>
       <path d="M 3513 2113 
L 3513 0 
L 2938 0 
L 2938 2094 
Q 2938 2591 2744 2837 
Q 2550 3084 2163 3084 
Q 1697 3084 1428 2787 
Q 1159 2491 1159 1978 
L 1159 0 
L 581 0 
L 581 4863 
L 1159 4863 
L 1159 2956 
Q 1366 3272 1645 3428 
Q 1925 3584 2291 3584 
Q 2894 3584 3203 3211 
Q 3513 2838 3513 2113 
z
" id="DejaVuSans-68" transform="scale(0.015625)"/>
      </defs>
      <use xlink:href="#DejaVuSans-53"/>
      <use x="63.476562" xlink:href="#DejaVuSans-65"/>
      <use x="125" xlink:href="#DejaVuSans-71"/>
      <use x="188.476562" xlink:href="#DejaVuSans-75"/>
      <use x="251.855469" xlink:href="#DejaVuSans-65"/>
      <use x="313.378906" xlink:href="#DejaVuSans-6e"/>
      <use x="376.757812" xlink:href="#DejaVuSans-63"/>
      <use x="431.738281" xlink:href="#DejaVuSans-65"/>
      <use x="493.261719" xlink:href="#DejaVuSans-20"/>
      <use x="525.048828" xlink:href="#DejaVuSans-4c"/>
      <use x="579.011719" xlink:href="#DejaVuSans-65"/>
      <use x="640.535156" xlink:href="#DejaVuSans-6e"/>
      <use x="703.914062" xlink:href="#DejaVuSans-67"/>
      <use x="767.390625" xlink:href="#DejaVuSans-74"/>
      <use x="806.599609" xlink:href="#DejaVuSans-68"/>
     </g>
    </g>
   </g>
   <g id="matplotlib.axis_2">
    <g id="ytick_1">
     <g id="line2d_7">
      <defs>
       <path d="M 0 0 
L -3.5 0 
" id="md8a60ea9cc" style="stroke:#000000;stroke-width:0.8;"/>
      </defs>
      <g>
       <use style="stroke:#000000;stroke-width:0.8;" x="51.05" xlink:href="#md8a60ea9cc" y="174.04"/>
      </g>
     </g>
     <g id="text_8">
      <!-- 0 -->
      <g transform="translate(37.6875 177.839219)scale(0.1 -0.1)">
       <use xlink:href="#DejaVuSans-30"/>
      </g>
     </g>
    </g>
    <g id="ytick_2">
     <g id="line2d_8">
      <g>
       <use style="stroke:#000000;stroke-width:0.8;" x="51.05" xlink:href="#md8a60ea9cc" y="136.89"/>
      </g>
     </g>
     <g id="text_9">
      <!-- 45 -->
      <g transform="translate(31.325 140.689219)scale(0.1 -0.1)">
       <defs>
        <path d="M 2419 4116 
L 825 1625 
L 2419 1625 
L 2419 4116 
z
M 2253 4666 
L 3047 4666 
L 3047 1625 
L 3713 1625 
L 3713 1100 
L 3047 1100 
L 3047 0 
L 2419 0 
L 2419 1100 
L 313 1100 
L 313 1709 
L 2253 4666 
z
" id="DejaVuSans-34" transform="scale(0.015625)"/>
       </defs>
       <use xlink:href="#DejaVuSans-34"/>
       <use x="63.623047" xlink:href="#DejaVuSans-35"/>
      </g>
     </g>
    </g>
    <g id="ytick_3">
     <g id="line2d_9">
      <g>
       <use style="stroke:#000000;stroke-width:0.8;" x="51.05" xlink:href="#md8a60ea9cc" y="99.74"/>
      </g>
     </g>
     <g id="text_10">
      <!-- 90 -->
      <g transform="translate(31.325 103.539219)scale(0.1 -0.1)">
       <defs>
        <path d="M 703 97 
L 703 672 
Q 941 559 1184 500 
Q 1428 441 1663 441 
Q 2288 441 2617 861 
Q 2947 1281 2994 2138 
Q 2813 1869 2534 1725 
Q 2256 1581 1919 1581 
Q 1219 1581 811 2004 
Q 403 2428 403 3163 
Q 403 3881 828 4315 
Q 1253 4750 1959 4750 
Q 2769 4750 3195 4129 
Q 3622 3509 3622 2328 
Q 3622 1225 3098 567 
Q 2575 -91 1691 -91 
Q 1453 -91 1209 -44 
Q 966 3 703 97 
z
M 1959 2075 
Q 2384 2075 2632 2365 
Q 2881 2656 2881 3163 
Q 2881 3666 2632 3958 
Q 2384 4250 1959 4250 
Q 1534 4250 1286 3958 
Q 1038 3666 1038 3163 
Q 1038 2656 1286 2365 
Q 1534 2075 1959 2075 
z
" id="DejaVuSans-39" transform="scale(0.015625)"/>
       </defs>
       <use xlink:href="#DejaVuSans-39"/>
       <use x="63.623047" xlink:href="#DejaVuSans-30"/>
      </g>
     </g>
    </g>
    <g id="ytick_4">
     <g id="line2d_10">
      <g>
       <use style="stroke:#000000;stroke-width:0.8;" x="51.05" xlink:href="#md8a60ea9cc" y="62.59"/>
      </g>
     </g>
     <g id="text_11">
      <!-- 135 -->
      <g transform="translate(24.9625 66.389219)scale(0.1 -0.1)">
       <use xlink:href="#DejaVuSans-31"/>
       <use x="63.623047" xlink:href="#DejaVuSans-33"/>
       <use x="127.246094" xlink:href="#DejaVuSans-35"/>
      </g>
     </g>
    </g>
    <g id="ytick_5">
     <g id="line2d_11">
      <g>
       <use style="stroke:#000000;stroke-width:0.8;" x="51.05" xlink:href="#md8a60ea9cc" y="25.44"/>
      </g>
     </g>
     <g id="text_12">
      <!-- 180 -->
      <g transform="translate(24.9625 29.239219)scale(0.1 -0.1)">
       <defs>
        <path d="M 2034 2216 
Q 1584 2216 1326 1975 
Q 1069 1734 1069 1313 
Q 1069 891 1326 650 
Q 1584 409 2034 409 
Q 2484 409 2743 651 
Q 3003 894 3003 1313 
Q 3003 1734 2745 1975 
Q 2488 2216 2034 2216 
z
M 1403 2484 
Q 997 2584 770 2862 
Q 544 3141 544 3541 
Q 544 4100 942 4425 
Q 1341 4750 2034 4750 
Q 2731 4750 3128 4425 
Q 3525 4100 3525 3541 
Q 3525 3141 3298 2862 
Q 3072 2584 2669 2484 
Q 3125 2378 3379 2068 
Q 3634 1759 3634 1313 
Q 3634 634 3220 271 
Q 2806 -91 2034 -91 
Q 1263 -91 848 271 
Q 434 634 434 1313 
Q 434 1759 690 2068 
Q 947 2378 1403 2484 
z
M 1172 3481 
Q 1172 3119 1398 2916 
Q 1625 2713 2034 2713 
Q 2441 2713 2670 2916 
Q 2900 3119 2900 3481 
Q 2900 3844 2670 4047 
Q 2441 4250 2034 4250 
Q 1625 4250 1398 4047 
Q 1172 3844 1172 3481 
z
" id="DejaVuSans-38" transform="scale(0.015625)"/>
       </defs>
       <use xlink:href="#DejaVuSans-31"/>
       <use x="63.623047" xlink:href="#DejaVuSans-38"/>
       <use x="127.246094" xlink:href="#DejaVuSans-30"/>
      </g>
     </g>
    </g>
    <g id="text_13">
     <!-- Frequency -->
     <g transform="translate(18.882812 125.569688)rotate(-90)scale(0.1 -0.1)">
      <defs>
       <path d="M 628 4666 
L 3309 4666 
L 3309 4134 
L 1259 4134 
L 1259 2759 
L 3109 2759 
L 3109 2228 
L 1259 2228 
L 1259 0 
L 628 0 
L 628 4666 
z
" id="DejaVuSans-46" transform="scale(0.015625)"/>
       <path d="M 2631 2963 
Q 2534 3019 2420 3045 
Q 2306 3072 2169 3072 
Q 1681 3072 1420 2755 
Q 1159 2438 1159 1844 
L 1159 0 
L 581 0 
L 581 3500 
L 1159 3500 
L 1159 2956 
Q 1341 3275 1631 3429 
Q 1922 3584 2338 3584 
Q 2397 3584 2469 3576 
Q 2541 3569 2628 3553 
L 2631 2963 
z
" id="DejaVuSans-72" transform="scale(0.015625)"/>
       <path d="M 2059 -325 
Q 1816 -950 1584 -1140 
Q 1353 -1331 966 -1331 
L 506 -1331 
L 506 -850 
L 844 -850 
Q 1081 -850 1212 -737 
Q 1344 -625 1503 -206 
L 1606 56 
L 191 3500 
L 800 3500 
L 1894 763 
L 2988 3500 
L 3597 3500 
L 2059 -325 
z
" id="DejaVuSans-79" transform="scale(0.015625)"/>
      </defs>
      <use xlink:href="#DejaVuSans-46"/>
      <use x="50.269531" xlink:href="#DejaVuSans-72"/>
      <use x="89.132812" xlink:href="#DejaVuSans-65"/>
      <use x="150.65625" xlink:href="#DejaVuSans-71"/>
      <use x="214.132812" xlink:href="#DejaVuSans-75"/>
      <use x="277.511719" xlink:href="#DejaVuSans-65"/>
      <use x="339.035156" xlink:href="#DejaVuSans-6e"/>
      <use x="402.414062" xlink:href="#DejaVuSans-63"/>
      <use x="457.394531" xlink:href="#DejaVuSans-79"/>
     </g>
    </g>
   </g>
   <g id="line2d_12">
    <path clip-path="url(#pc0e700eaf5)" d="M 101.829805 174.04 
L 101.829805 25.44 
" style="fill:none;stroke:#000000;stroke-dasharray:5.55,2.4;stroke-dashoffset:0;stroke-opacity:0.4;stroke-width:1.5;"/>
   </g>
   <g id="line2d_13">
    <path clip-path="url(#pc0e700eaf5)" d="M 145.355353 174.04 
L 145.355353 25.44 
" style="fill:none;stroke:#000000;stroke-dasharray:5.55,2.4;stroke-dashoffset:0;stroke-opacity:0.4;stroke-width:1.5;"/>
   </g>
   <g id="line2d_14">
    <path clip-path="url(#pc0e700eaf5)" d="M 196.135158 174.04 
L 196.135158 25.44 
" style="fill:none;stroke:#000000;stroke-dasharray:5.55,2.4;stroke-dashoffset:0;stroke-opacity:0.4;stroke-width:1.5;"/>
   </g>
   <g id="line2d_15">
    <path clip-path="url(#pc0e700eaf5)" d="M 232.406448 174.04 
L 232.406448 25.44 
" style="fill:none;stroke:#000000;stroke-dasharray:5.55,2.4;stroke-dashoffset:0;stroke-opacity:0.4;stroke-width:1.5;"/>
   </g>
   <g id="patch_196">
    <path d="M 51.05 174.04 
L 51.05 25.44 
" style="fill:none;stroke:#000000;stroke-linecap:square;stroke-linejoin:miter;stroke-width:0.8;"/>
   </g>
   <g id="patch_197">
    <path d="M 349.2 174.04 
L 349.2 25.44 
" style="fill:none;stroke:#000000;stroke-linecap:square;stroke-linejoin:miter;stroke-width:0.8;"/>
   </g>
   <g id="patch_198">
    <path d="M 51.05 174.04 
L 349.2 174.04 
" style="fill:none;stroke:#000000;stroke-linecap:square;stroke-linejoin:miter;stroke-width:0.8;"/>
   </g>
   <g id="patch_199">
    <path d="M 51.05 25.44 
L 349.2 25.44 
" style="fill:none;stroke:#000000;stroke-linecap:square;stroke-linejoin:miter;stroke-width:0.8;"/>
   </g>
   <g id="text_14">
    <!-- DUF4176 family - 2265 sequences -->
    <g transform="translate(96.772188 19.44)scale(0.12 -0.12)">
     <defs>
      <path d="M 1259 4147 
L 1259 519 
L 2022 519 
Q 2988 519 3436 956 
Q 3884 1394 3884 2338 
Q 3884 3275 3436 3711 
Q 2988 4147 2022 4147 
L 1259 4147 
z
M 628 4666 
L 1925 4666 
Q 3281 4666 3915 4102 
Q 4550 3538 4550 2338 
Q 4550 1131 3912 565 
Q 3275 0 1925 0 
L 628 0 
L 628 4666 
z
" id="DejaVuSans-44" transform="scale(0.015625)"/>
      <path d="M 556 4666 
L 1191 4666 
L 1191 1831 
Q 1191 1081 1462 751 
Q 1734 422 2344 422 
Q 2950 422 3222 751 
Q 3494 1081 3494 1831 
L 3494 4666 
L 4128 4666 
L 4128 1753 
Q 4128 841 3676 375 
Q 3225 -91 2344 -91 
Q 1459 -91 1007 375 
Q 556 841 556 1753 
L 556 4666 
z
" id="DejaVuSans-55" transform="scale(0.015625)"/>
      <path d="M 2113 2584 
Q 1688 2584 1439 2293 
Q 1191 2003 1191 1497 
Q 1191 994 1439 701 
Q 1688 409 2113 409 
Q 2538 409 2786 701 
Q 3034 994 3034 1497 
Q 3034 2003 2786 2293 
Q 2538 2584 2113 2584 
z
M 3366 4563 
L 3366 3988 
Q 3128 4100 2886 4159 
Q 2644 4219 2406 4219 
Q 1781 4219 1451 3797 
Q 1122 3375 1075 2522 
Q 1259 2794 1537 2939 
Q 1816 3084 2150 3084 
Q 2853 3084 3261 2657 
Q 3669 2231 3669 1497 
Q 3669 778 3244 343 
Q 2819 -91 2113 -91 
Q 1303 -91 875 529 
Q 447 1150 447 2328 
Q 447 3434 972 4092 
Q 1497 4750 2381 4750 
Q 2619 4750 2861 4703 
Q 3103 4656 3366 4563 
z
" id="DejaVuSans-36" transform="scale(0.015625)"/>
      <path d="M 2375 4863 
L 2375 4384 
L 1825 4384 
Q 1516 4384 1395 4259 
Q 1275 4134 1275 3809 
L 1275 3500 
L 2222 3500 
L 2222 3053 
L 1275 3053 
L 1275 0 
L 697 0 
L 697 3053 
L 147 3053 
L 147 3500 
L 697 3500 
L 697 3744 
Q 697 4328 969 4595 
Q 1241 4863 1831 4863 
L 2375 4863 
z
" id="DejaVuSans-66" transform="scale(0.015625)"/>
      <path d="M 2194 1759 
Q 1497 1759 1228 1600 
Q 959 1441 959 1056 
Q 959 750 1161 570 
Q 1363 391 1709 391 
Q 2188 391 2477 730 
Q 2766 1069 2766 1631 
L 2766 1759 
L 2194 1759 
z
M 3341 1997 
L 3341 0 
L 2766 0 
L 2766 531 
Q 2569 213 2275 61 
Q 1981 -91 1556 -91 
Q 1019 -91 701 211 
Q 384 513 384 1019 
Q 384 1609 779 1909 
Q 1175 2209 1959 2209 
L 2766 2209 
L 2766 2266 
Q 2766 2663 2505 2880 
Q 2244 3097 1772 3097 
Q 1472 3097 1187 3025 
Q 903 2953 641 2809 
L 641 3341 
Q 956 3463 1253 3523 
Q 1550 3584 1831 3584 
Q 2591 3584 2966 3190 
Q 3341 2797 3341 1997 
z
" id="DejaVuSans-61" transform="scale(0.015625)"/>
      <path d="M 3328 2828 
Q 3544 3216 3844 3400 
Q 4144 3584 4550 3584 
Q 5097 3584 5394 3201 
Q 5691 2819 5691 2113 
L 5691 0 
L 5113 0 
L 5113 2094 
Q 5113 2597 4934 2840 
Q 4756 3084 4391 3084 
Q 3944 3084 3684 2787 
Q 3425 2491 3425 1978 
L 3425 0 
L 2847 0 
L 2847 2094 
Q 2847 2600 2669 2842 
Q 2491 3084 2119 3084 
Q 1678 3084 1418 2786 
Q 1159 2488 1159 1978 
L 1159 0 
L 581 0 
L 581 3500 
L 1159 3500 
L 1159 2956 
Q 1356 3278 1631 3431 
Q 1906 3584 2284 3584 
Q 2666 3584 2933 3390 
Q 3200 3197 3328 2828 
z
" id="DejaVuSans-6d" transform="scale(0.015625)"/>
      <path d="M 603 3500 
L 1178 3500 
L 1178 0 
L 603 0 
L 603 3500 
z
M 603 4863 
L 1178 4863 
L 1178 4134 
L 603 4134 
L 603 4863 
z
" id="DejaVuSans-69" transform="scale(0.015625)"/>
      <path d="M 603 4863 
L 1178 4863 
L 1178 0 
L 603 0 
L 603 4863 
z
" id="DejaVuSans-6c" transform="scale(0.015625)"/>
      <path d="M 313 2009 
L 1997 2009 
L 1997 1497 
L 313 1497 
L 313 2009 
z
" id="DejaVuSans-2d" transform="scale(0.015625)"/>
      <path d="M 2834 3397 
L 2834 2853 
Q 2591 2978 2328 3040 
Q 2066 3103 1784 3103 
Q 1356 3103 1142 2972 
Q 928 2841 928 2578 
Q 928 2378 1081 2264 
Q 1234 2150 1697 2047 
L 1894 2003 
Q 2506 1872 2764 1633 
Q 3022 1394 3022 966 
Q 3022 478 2636 193 
Q 2250 -91 1575 -91 
Q 1294 -91 989 -36 
Q 684 19 347 128 
L 347 722 
Q 666 556 975 473 
Q 1284 391 1588 391 
Q 1994 391 2212 530 
Q 2431 669 2431 922 
Q 2431 1156 2273 1281 
Q 2116 1406 1581 1522 
L 1381 1569 
Q 847 1681 609 1914 
Q 372 2147 372 2553 
Q 372 3047 722 3315 
Q 1072 3584 1716 3584 
Q 2034 3584 2315 3537 
Q 2597 3491 2834 3397 
z
" id="DejaVuSans-73" transform="scale(0.015625)"/>
     </defs>
     <use xlink:href="#DejaVuSans-44"/>
     <use x="77.001953" xlink:href="#DejaVuSans-55"/>
     <use x="150.195312" xlink:href="#DejaVuSans-46"/>
     <use x="207.714844" xlink:href="#DejaVuSans-34"/>
     <use x="271.337891" xlink:href="#DejaVuSans-31"/>
     <use x="334.960938" xlink:href="#DejaVuSans-37"/>
     <use x="398.583984" xlink:href="#DejaVuSans-36"/>
     <use x="462.207031" xlink:href="#DejaVuSans-20"/>
     <use x="493.994141" xlink:href="#DejaVuSans-66"/>
     <use x="529.199219" xlink:href="#DejaVuSans-61"/>
     <use x="590.478516" xlink:href="#DejaVuSans-6d"/>
     <use x="687.890625" xlink:href="#DejaVuSans-69"/>
     <use x="715.673828" xlink:href="#DejaVuSans-6c"/>
     <use x="743.457031" xlink:href="#DejaVuSans-79"/>
     <use x="802.636719" xlink:href="#DejaVuSans-20"/>
     <use x="834.423828" xlink:href="#DejaVuSans-2d"/>
     <use x="870.507812" xlink:href="#DejaVuSans-20"/>
     <use x="902.294922" xlink:href="#DejaVuSans-32"/>
     <use x="965.917969" xlink:href="#DejaVuSans-32"/>
     <use x="1029.541016" xlink:href="#DejaVuSans-36"/>
     <use x="1093.164062" xlink:href="#DejaVuSans-35"/>
     <use x="1156.787109" xlink:href="#DejaVuSans-20"/>
     <use x="1188.574219" xlink:href="#DejaVuSans-73"/>
     <use x="1240.673828" xlink:href="#DejaVuSans-65"/>
     <use x="1302.197266" xlink:href="#DejaVuSans-71"/>
     <use x="1365.673828" xlink:href="#DejaVuSans-75"/>
     <use x="1429.052734" xlink:href="#DejaVuSans-65"/>
     <use x="1490.576172" xlink:href="#DejaVuSans-6e"/>
     <use x="1553.955078" xlink:href="#DejaVuSans-63"/>
     <use x="1608.935547" xlink:href="#DejaVuSans-65"/>
     <use x="1670.458984" xlink:href="#DejaVuSans-73"/>
    </g>
   </g>
  </g>
 </g>
 <defs>
  <clipPath id="pc0e700eaf5">
   <rect height="148.6" width="298.15" x="51.05" y="25.44"/>
  </clipPath>
 </defs>
</svg>
