<svg class="main-svg" xmlns="http://www.w3.org/2000/svg" xmlns:xlink="http://www.w3.org/1999/xlink" width="700" height="500" style="" viewBox="0 0 700 500"><rect x="0" y="0" width="700" height="500" style="fill: rgb(255, 255, 255); fill-opacity: 1;"/><defs id="defs-6313dc"><g class="clips"/><g class="gradients"/><g class="patterns"/></defs><g class="bglayer"/><g class="layer-below"><g class="imagelayer"/><g class="shapelayer"/></g><g class="cartesianlayer"/><g class="polarlayer"/><g class="smithlayer"/><g class="ternarylayer"/><g class="geolayer"/><g class="funnelarealayer"/><g class="pielayer"/><g class="iciclelayer"/><g class="treemaplayer"/><g class="sunburstlayer"><g class="trace sunburst" stroke-linejoin="round" style="opacity: 1;"><g class="slice"><path class="surface" d="M350,240A0,0 0,1,0 350,240A0,0 0,1,0 350,240ZM395,240A45,45 0,1,1 305,240A45,45 0,1,1 395,240Z" style="pointer-events: none; stroke-width: 1; fill: rgb(25, 211, 243); fill-opacity: 1; stroke: rgb(255, 255, 255); stroke-opacity: 1;"/><g class="slicetext"><text data-notex="1" class="slicetext" text-anchor="middle" x="0" y="0" style="font-family: 'Open Sans', verdana, arial, sans-serif; font-size: 12px; fill: rgb(42, 63, 95); fill-opacity: 1; white-space: pre;" transform="translate(350,244.75)">Firmicutes</text></g></g><g class="slice cursor-pointer"><path class="surface" d="M395,240L440,240A90,90 0,1,0 342.7842751220119,329.71027429723523L346.39213756100594,284.8551371486176A45,45 0,1,1 395,240Z" style="pointer-events: none; stroke-width: 1; fill: rgb(25, 211, 243); fill-opacity: 1; stroke: rgb(255, 255, 255); stroke-opacity: 1;"/><g class="slicetext"><text data-notex="1" class="slicetext" text-anchor="middle" x="0" y="0" style="font-family: 'Open Sans', verdana, arial, sans-serif; font-size: 12px; fill: rgb(68, 68, 68); fill-opacity: 1; white-space: pre;" transform="translate(310.6793871487964,197.3896979925487)rotate(-42.70069561811363)">Bacilli</text></g></g><g class="slice cursor-pointer"><path class="surface" d="M346.39213756100594,284.8551371486176L342.7842751220119,329.71027429723523A90,90 0,0,0 438.6426002576519,255.57207178130548L394.32130012882595,247.78603589065273A45,45 0,0,1 346.39213756100594,284.8551371486176Z" style="pointer-events: none; stroke-width: 1; fill: rgb(25, 211, 243); fill-opacity: 1; stroke: rgb(255, 255, 255); stroke-opacity: 1;"/><g class="slicetext"><text data-notex="1" class="slicetext" text-anchor="middle" x="0" y="0" style="font-family: 'Open Sans', verdana, arial, sans-serif; font-size: 12px; fill: rgb(68, 68, 68); fill-opacity: 1; white-space: pre;" transform="translate(392.8115916138802,295.35401897039236)rotate(-37.71888033772666)">Clostridia</text></g></g><g class="slice cursor-pointer"><path class="surface" d="M394.32130012882595,247.78603589065273L438.6426002576519,255.57207178130548A90,90 0,0,0 439.99483372042977,240.96431511042599L394.9974168602149,240.48215755521298A45,45 0,0,1 394.32130012882595,247.78603589065273Z" style="pointer-events: none; stroke-width: 1; fill: rgb(86, 180, 233); fill-opacity: 1; stroke: rgb(255, 255, 255); stroke-opacity: 1;"/><g class="slicetext"><text data-notex="1" class="slicetext" text-anchor="middle" x="0" y="0" style="font-family: 'Open Sans', verdana, arial, sans-serif; font-size: 12px; fill: rgb(68, 68, 68); fill-opacity: 1; white-space: pre;" transform="translate(416.9785817956378,248.3730844354786)scale(0.45550667569876524)rotate(5.288772186881147)">Erysipelotrichia</text></g></g><g class="slice cursor-pointer"><path class="surface" d="M394.9974168602149,240.48215755521298L439.99483372042977,240.96431511042599A90,90 0,0,0 439.9994784240173,240.30640398960477L394.99973921200865,240.15320199480237A45,45 0,0,1 394.9974168602149,240.48215755521298Z" style="pointer-events: none; stroke-width: 1; fill: rgb(182, 232, 128); fill-opacity: 1; stroke: rgb(255, 255, 255); stroke-opacity: 1;"/><g class="slicetext"><text data-notex="1" class="slicetext" text-anchor="middle" x="0" y="0" style="font-family: 'Open Sans', verdana, arial, sans-serif; font-size: 12px; fill: rgb(68, 68, 68); fill-opacity: 1; white-space: pre;" transform="translate(438.22574165676633,240.816105178735)scale(0.04068349427983755)rotate(0.4044885139595067)">Negativicutes</text></g></g><g class="slice cursor-pointer"><path class="surface" d="M394.99973921200865,240.15320199480237L439.9994784240173,240.30640398960477A90,90 0,0,0 440,239.99999999999994L395,239.99999999999997A45,45 0,0,1 394.99973921200865,240.15320199480237Z" style="pointer-events: none; stroke-width: 1; fill: rgb(255, 151, 255); fill-opacity: 1; stroke: rgb(255, 255, 255); stroke-opacity: 1;"/><g class="slicetext"><text data-notex="1" class="slicetext" text-anchor="middle" x="0" y="0" style="font-family: 'Open Sans', verdana, arial, sans-serif; font-size: 12px; fill: rgb(68, 68, 68); fill-opacity: 1; white-space: pre;" transform="translate(439.3436521040113,240.24440203833367)scale(0.019435101813363373)rotate(0.09753160746532785)">Tissierellia</text></g></g><g class="slice cursor-pointer"><path class="surface" d="M440,240L485,240A135,135 0,0,0 239.86114240479446,161.93315654118558L276.5740949365296,187.95543769412373A90,90 0,0,1 440,240Z" style="pointer-events: none; stroke-width: 1; fill: rgb(25, 211, 243); fill-opacity: 1; stroke: rgb(255, 255, 255); stroke-opacity: 1;"/><g class="slicetext"><text data-notex="1" class="slicetext" text-anchor="middle" x="0" y="0" style="font-family: 'Open Sans', verdana, arial, sans-serif; font-size: 12px; fill: rgb(68, 68, 68); fill-opacity: 1; white-space: pre;" transform="translate(380.71988315990063,143.53603745680897)rotate(17.66458005411164)">Bacillales</text></g></g><g class="slice cursor-pointer"><path class="surface" d="M276.5740949365296,187.95543769412373L239.86114240479446,161.93315654118558A135,135 0,0,0 339.1764126830178,374.5654114458529L342.7842751220119,329.71027429723523A90,90 0,0,1 276.5740949365296,187.95543769412373Z" style="pointer-events: none; stroke-width: 1; fill: rgb(25, 211, 243); fill-opacity: 1; stroke: rgb(255, 255, 255); stroke-opacity: 1;"/><g class="slicetext"><text data-notex="1" class="slicetext" text-anchor="middle" x="0" y="0" style="font-family: 'Open Sans', verdana, arial, sans-serif; font-size: 12px; fill: rgb(68, 68, 68); fill-opacity: 1; white-space: pre;" transform="translate(252.5032214522651,285.53833526839884)rotate(64.96388443599801)">Lactobacillales</text></g></g><g class="slice cursor-pointer"><path class="surface" d="M342.7842751220119,329.71027429723523L339.1764126830178,374.5654114458529A135,135 0,0,0 481.9666299056355,268.4571360356066L437.9777532704237,258.9714240237377A90,90 0,0,1 342.7842751220119,329.71027429723523Z" style="pointer-events: none; stroke-width: 1; fill: rgb(25, 211, 243); fill-opacity: 1; stroke: rgb(255, 255, 255); stroke-opacity: 1;"/><g class="slicetext"><text data-notex="1" class="slicetext" text-anchor="middle" x="0" y="0" style="font-family: 'Open Sans', verdana, arial, sans-serif; font-size: 12px; fill: rgb(68, 68, 68); fill-opacity: 1; white-space: pre;" transform="translate(414.5090092298663,326.80996279635116)rotate(-36.616263972204365)">Eubacteriales</text></g></g><g class="slice cursor-pointer"><path class="surface" d="M437.9777532704237,258.9714240237377L481.9666299056355,268.4571360356066A135,135 0,0,0 482.96390038647786,263.3581076719582L438.6426002576519,255.57207178130548A90,90 0,0,1 437.9777532704237,258.9714240237377Z" style="pointer-events: none; stroke-width: 1; fill: rgb(0, 204, 150); fill-opacity: 1; stroke: rgb(255, 255, 255); stroke-opacity: 1;"/><g class="slicetext"><text data-notex="1" class="slicetext" text-anchor="middle" x="0" y="0" style="font-family: 'Open Sans', verdana, arial, sans-serif; font-size: 12px; fill: rgb(68, 68, 68); fill-opacity: 1; white-space: pre;" transform="translate(463.4228994811381,263.3694816317825)scale(0.24507772515893894)rotate(11.066246926296344)">Thermoanaerobacterales</text></g></g><g class="slice cursor-pointer"><path class="surface" d="M438.6426002576519,255.57207178130548L482.96390038647786,263.3581076719582A135,135 0,0,0 484.9922505806446,241.44647266563896L439.99483372042977,240.96431511042599A90,90 0,0,1 438.6426002576519,255.57207178130548Z" style="pointer-events: none; stroke-width: 1; fill: rgb(86, 180, 233); fill-opacity: 1; stroke: rgb(255, 255, 255); stroke-opacity: 1;"/><g class="slicetext"><text data-notex="1" class="slicetext" text-anchor="middle" x="0" y="0" style="font-family: 'Open Sans', verdana, arial, sans-serif; font-size: 12px; fill: rgb(68, 68, 68); fill-opacity: 1; white-space: pre;" transform="translate(461.825081698678,252.2949405697037)scale(0.40738312211797895)rotate(5.288772186881147)">Erysipelotrichales</text></g></g><g class="slice cursor-pointer"><path class="surface" d="M439.99483372042977,240.96431511042599L484.9922505806446,241.44647266563896A135,135 0,0,0 484.99921763602595,240.45960598440715L439.9994784240173,240.30640398960477A90,90 0,0,1 439.99483372042977,240.96431511042599Z" style="pointer-events: none; stroke-width: 1; fill: rgb(182, 232, 128); fill-opacity: 1; stroke: rgb(255, 255, 255); stroke-opacity: 1;"/><g class="slicetext"><text data-notex="1" class="slicetext" text-anchor="middle" x="0" y="0" style="font-family: 'Open Sans', verdana, arial, sans-serif; font-size: 12px; fill: rgb(68, 68, 68); fill-opacity: 1; white-space: pre;" transform="translate(481.575324857809,241.2221775391711)scale(0.06174278331532211)rotate(0.4044885139595067)">Selenomonadales</text></g></g><g class="slice cursor-pointer"><path class="surface" d="M439.9994784240173,240.30640398960477L484.99921763602595,240.45960598440715A135,135 0,0,0 485,239.99999999999991L440,239.99999999999994A90,90 0,0,1 439.9994784240173,240.30640398960477Z" style="pointer-events: none; stroke-width: 1; fill: rgb(255, 151, 255); fill-opacity: 1; stroke: rgb(255, 255, 255); stroke-opacity: 1;"/><g class="slicetext"><text data-notex="1" class="slicetext" text-anchor="middle" x="0" y="0" style="font-family: 'Open Sans', verdana, arial, sans-serif; font-size: 12px; fill: rgb(68, 68, 68); fill-opacity: 1; white-space: pre;" transform="translate(483.8097926075059,240.3691115703204)scale(0.029754470985969683)rotate(0.09753160746532785)">Tissierellales</text></g></g><g class="slice"><path class="surface" d="M485,240L530,240A180,180 0,0,0 316.428835810464,63.158328058799384L324.821626857848,107.36874604409954A135,135 0,0,1 485,240Z" style="pointer-events: none; stroke-width: 1; fill: rgb(222, 143, 5); fill-opacity: 1; stroke: rgb(255, 255, 255); stroke-opacity: 1; opacity: 0.7;"/><g class="slicetext"><text data-notex="1" class="slicetext" text-anchor="middle" x="0" y="0" style="font-family: 'Open Sans', verdana, arial, sans-serif; font-size: 12px; fill: rgb(68, 68, 68); fill-opacity: 1; white-space: pre;" transform="translate(443.0617531015164,127.609596011858)rotate(39.625512283934086)">Bacillaceae</text></g></g><g class="slice"><path class="surface" d="M324.821626857848,107.36874604409954L316.428835810464,63.158328058799384A180,180 0,0,0 259.6409869814051,84.32325553794041L282.23074023605386,123.24244165345532A135,135 0,0,1 324.821626857848,107.36874604409954Z" style="pointer-events: none; stroke-width: 1; fill: rgb(202, 145, 97); fill-opacity: 1; stroke: rgb(255, 255, 255); stroke-opacity: 1; opacity: 0.7;"/><g class="slicetext"><text data-notex="1" class="slicetext" text-anchor="middle" x="0" y="0" style="font-family: 'Open Sans', verdana, arial, sans-serif; font-size: 12px; fill: rgb(68, 68, 68); fill-opacity: 1; white-space: pre;" transform="translate(290.37683692900237,80.02443785724913)scale(0.5682859917198249)rotate(-20.44050978144969)">Paenibacillaceae</text></g></g><g class="slice"><path class="surface" d="M282.23074023605386,123.24244165345532L259.6409869814051,84.32325553794041A180,180 0,0,0 216.8674933319535,118.85654921423712L250.1506199989651,149.14241191067782A135,135 0,0,1 282.23074023605386,123.24244165345532Z" style="pointer-events: none; stroke-width: 1; fill: rgb(251, 175, 228); fill-opacity: 1; stroke: rgb(255, 255, 255); stroke-opacity: 1; opacity: 0.7;"/><g class="slicetext"><text data-notex="1" class="slicetext" text-anchor="middle" x="0" y="0" style="font-family: 'Open Sans', verdana, arial, sans-serif; font-size: 12px; fill: rgb(68, 68, 68); fill-opacity: 1; white-space: pre;" transform="translate(243.4862930364388,108.07040732657939)scale(0.7003760640329497)rotate(-38.915764200692024)">Listeriaceae</text></g></g><g class="slice"><path class="surface" d="M250.1506199989651,149.14241191067782L216.8674933319535,118.85654921423712A180,180 0,0,0 209.609907150461,127.34733989071621L244.70743036284574,155.51050491803716A135,135 0,0,1 250.1506199989651,149.14241191067782Z" style="pointer-events: none; stroke-width: 1; fill: rgb(236, 225, 51); fill-opacity: 1; stroke: rgb(255, 255, 255); stroke-opacity: 1; opacity: 0.7;"/><g class="slicetext"><text data-notex="1" class="slicetext" text-anchor="middle" x="0" y="0" style="font-family: 'Open Sans', verdana, arial, sans-serif; font-size: 12px; fill: rgb(68, 68, 68); fill-opacity: 1; white-space: pre;" transform="translate(229.106833196217,139.05053599983702)scale(0.3816998103515569)rotate(40.52248971805341)">Staphylococcaceae</text></g></g><g class="slice"><path class="surface" d="M244.70743036284574,155.51050491803716L209.609907150461,127.34733989071621A180,180 0,0,0 207.07897534374692,130.5761419469835L242.80923150781018,157.9321064602376A135,135 0,0,1 244.70743036284574,155.51050491803716Z" style="pointer-events: none; stroke-width: 1; fill: rgb(99, 110, 250); fill-opacity: 1; stroke: rgb(255, 255, 255); stroke-opacity: 1; opacity: 0.7;"/><g class="slicetext"><text data-notex="1" class="slicetext" text-anchor="middle" x="0" y="0" style="font-family: 'Open Sans', verdana, arial, sans-serif; font-size: 12px; fill: rgb(255, 255, 255); fill-opacity: 1; white-space: pre;" transform="translate(216.73041678642255,136.9741190948747)scale(0.23841756704509576)rotate(38.09151113786879)">Planococcaceae</text></g></g><g class="slice"><path class="surface" d="M242.80923150781018,157.9321064602376L207.07897534374692,130.5761419469835A180,180 0,0,0 205.48761291019034,132.68658062662894L241.61570968264274,159.5149354699717A135,135 0,0,1 242.80923150781018,157.9321064602376Z" style="pointer-events: none; stroke-width: 1; fill: rgb(254, 203, 82); fill-opacity: 1; stroke: rgb(255, 255, 255); stroke-opacity: 1; opacity: 0.7;"/><g class="slicetext"><text data-notex="1" class="slicetext" text-anchor="middle" x="0" y="0" style="font-family: 'Open Sans', verdana, arial, sans-serif; font-size: 12px; fill: rgb(68, 68, 68); fill-opacity: 1; white-space: pre;" transform="translate(214.19356035081753,138.5224371562038)scale(0.15572108775663812)rotate(37.01788006934419)">Sporolactobacillaceae</text></g></g><g class="slice"><path class="surface" d="M241.61570968264274,159.5149354699717L205.48761291019034,132.68658062662894A180,180 0,0,0 203.93316414221977,134.81217055905998L240.44987310666482,161.10912791929496A135,135 0,0,1 241.61570968264274,159.5149354699717Z" style="pointer-events: none; stroke-width: 1; fill: rgb(255, 102, 146); fill-opacity: 1; stroke: rgb(255, 255, 255); stroke-opacity: 1; opacity: 0.7;"/><g class="slicetext"><text data-notex="1" class="slicetext" text-anchor="middle" x="0" y="0" style="font-family: 'Open Sans', verdana, arial, sans-serif; font-size: 12px; fill: rgb(68, 68, 68); fill-opacity: 1; white-space: pre;" transform="translate(211.56856153311435,139.6940225082189)scale(0.15791098072100626)rotate(36.178089842814984)">Alicyclobacillaceae</text></g></g><g class="slice"><path class="surface" d="M240.44987310666482,161.10912791929496L203.93316414221977,134.81217055905998A180,180 0,0,0 203.14818987305938,135.91087538824735L239.86114240479452,161.9331565411855A135,135 0,0,1 240.44987310666482,161.10912791929496Z" style="pointer-events: none; stroke-width: 1; fill: rgb(171, 99, 250); fill-opacity: 1; stroke: rgb(255, 255, 255); stroke-opacity: 1; opacity: 0.7;"/><g class="slicetext"><text data-notex="1" class="slicetext" text-anchor="middle" x="0" y="0" style="font-family: 'Open Sans', verdana, arial, sans-serif; font-size: 12px; fill: rgb(68, 68, 68); fill-opacity: 1; white-space: pre;" transform="translate(208.72851548714667,139.55463275742176)scale(0.08336023857218545)rotate(35.54406911208957)">Thermoactinomycetaceae</text></g></g><g class="slice"><path class="surface" d="M239.86114240479446,161.93315654118558L203.14818987305927,135.91087538824746A180,180 0,0,0 233.28995948535496,377.0356393171861L262.46746961401624,342.77672948788955A135,135 0,0,1 239.86114240479446,161.93315654118558Z" style="pointer-events: none; stroke-width: 1; fill: rgb(1, 115, 178); fill-opacity: 1; stroke: rgb(255, 255, 255); stroke-opacity: 1; opacity: 0.7;"/><g class="slicetext"><text data-notex="1" class="slicetext" text-anchor="middle" x="0" y="0" style="font-family: 'Open Sans', verdana, arial, sans-serif; font-size: 12px; fill: rgb(255, 255, 255); fill-opacity: 1; white-space: pre;" transform="translate(199.06341077522748,258.86780861637084)rotate(82.87470895018964)">Streptococcaceae</text></g></g><g class="slice"><path class="surface" d="M262.46746961401624,342.77672948788955L233.28995948535496,377.0356393171861A180,180 0,0,0 279.88037758156736,405.78069414710643L297.41028318617555,364.3355206103298A135,135 0,0,1 262.46746961401624,342.77672948788955Z" style="pointer-events: none; stroke-width: 1; fill: rgb(213, 94, 0); fill-opacity: 1; stroke: rgb(255, 255, 255); stroke-opacity: 1; opacity: 0.7;"/><g class="slicetext"><text data-notex="1" class="slicetext" text-anchor="middle" x="0" y="0" style="font-family: 'Open Sans', verdana, arial, sans-serif; font-size: 12px; fill: rgb(255, 255, 255); fill-opacity: 1; white-space: pre;" transform="translate(257.21706235012374,390.3839837105827)scale(0.5048435807862683)rotate(31.673487447683556)">Enterococcaceae</text></g></g><g class="slice"><path class="surface" d="M297.41028318617555,364.3355206103298L279.88037758156736,405.78069414710643A180,180 0,0,0 325.2378550443216,418.2886316543878L331.4283912832412,373.71647374079083A135,135 0,0,1 297.41028318617555,364.3355206103298Z" style="pointer-events: none; stroke-width: 1; fill: rgb(148, 148, 148); fill-opacity: 1; stroke: rgb(255, 255, 255); stroke-opacity: 1; opacity: 0.7;"/><g class="slicetext"><text data-notex="1" class="slicetext" text-anchor="middle" x="0" y="0" style="font-family: 'Open Sans', verdana, arial, sans-serif; font-size: 12px; fill: rgb(68, 68, 68); fill-opacity: 1; white-space: pre;" transform="translate(302.85419315159504,410.9646270894009)scale(0.4472487240134917)rotate(15.416913892777643)">Lactobacillaceae</text></g></g><g class="slice"><path class="surface" d="M331.4283912832412,373.71647374079083L325.2378550443216,418.2886316543878A180,180 0,0,0 335.5685502440236,419.42054859447046L339.1764126830177,374.5654114458529A135,135 0,0,1 331.4283912832412,373.71647374079083Z" style="pointer-events: none; stroke-width: 1; fill: rgb(171, 99, 250); fill-opacity: 1; stroke: rgb(255, 255, 255); stroke-opacity: 1; opacity: 0.7;"/><g class="slicetext"><text data-notex="1" class="slicetext" text-anchor="middle" x="0" y="0" style="font-family: 'Open Sans', verdana, arial, sans-serif; font-size: 12px; fill: rgb(68, 68, 68); fill-opacity: 1; white-space: pre;" transform="translate(334.68345450869674,396.75249307004066)scale(0.38894850678934506)rotate(-83.74714027694154)">Carnobacteriaceae</text></g></g><g class="slice"><path class="surface" d="M339.1764126830178,374.5654114458529L335.56855024402375,419.42054859447046A180,180 0,0,0 439.1145172673804,396.39246405182627L416.83588795053527,357.2943480388697A135,135 0,0,1 339.1764126830178,374.5654114458529Z" style="pointer-events: none; stroke-width: 1; fill: rgb(2, 158, 115); fill-opacity: 1; stroke: rgb(255, 255, 255); stroke-opacity: 1; opacity: 0.7;"/><g class="slicetext"><text data-notex="1" class="slicetext" text-anchor="middle" x="0" y="0" style="font-family: 'Open Sans', verdana, arial, sans-serif; font-size: 12px; fill: rgb(255, 255, 255); fill-opacity: 1; white-space: pre;" transform="translate(387.06719545108695,406.6729419339644)scale(0.9508564528842538)rotate(-12.538229981938684)">Lachnospiraceae</text></g></g><g class="slice"><path class="surface" d="M416.83588795053527,357.2943480388697L439.1145172673804,396.39246405182627A180,180 0,0,0 510.9769318758906,320.53835982825126L470.73269890691796,300.40376987118844A135,135 0,0,1 416.83588795053527,357.2943480388697Z" style="pointer-events: none; stroke-width: 1; fill: rgb(204, 120, 188); fill-opacity: 1; stroke: rgb(255, 255, 255); stroke-opacity: 1; opacity: 0.7;"/><g class="slicetext"><text data-notex="1" class="slicetext" text-anchor="middle" x="0" y="0" style="font-family: 'Open Sans', verdana, arial, sans-serif; font-size: 12px; fill: rgb(68, 68, 68); fill-opacity: 1; white-space: pre;" transform="translate(473.5900324206517,357.0863230434377)rotate(-46.547906254760164)">Clostridiaceae</text></g></g><g class="slice"><path class="surface" d="M470.73269890691796,300.40376987118844L510.9769318758906,320.53835982825126A180,180 0,0,0 521.9340569728304,293.279264755283L478.9505427296227,279.95944856646224A135,135 0,0,1 470.73269890691796,300.40376987118844Z" style="pointer-events: none; stroke-width: 1; fill: rgb(1, 115, 178); fill-opacity: 1; stroke: rgb(255, 255, 255); stroke-opacity: 1; opacity: 0.7;"/><g class="slicetext"><text data-notex="1" class="slicetext" text-anchor="middle" x="0" y="0" style="font-family: 'Open Sans', verdana, arial, sans-serif; font-size: 12px; fill: rgb(255, 255, 255); fill-opacity: 1; white-space: pre;" transform="translate(495.3208539087383,300.7262892213186)scale(0.45177444493213603)rotate(21.89826131739477)">Oscillospiraceae</text></g></g><g class="slice"><path class="surface" d="M478.9505427296227,279.95944856646224L521.9340569728304,293.279264755283A180,180 0,0,0 525.3747679186317,280.5424564806584L481.53107593897374,270.40684236049384A135,135 0,0,1 478.9505427296227,279.95944856646224Z" style="pointer-events: none; stroke-width: 1; fill: rgb(255, 161, 90); fill-opacity: 1; stroke: rgb(255, 255, 255); stroke-opacity: 1; opacity: 0.7;"/><g class="slicetext"><text data-notex="1" class="slicetext" text-anchor="middle" x="0" y="0" style="font-family: 'Open Sans', verdana, arial, sans-serif; font-size: 12px; fill: rgb(68, 68, 68); fill-opacity: 1; white-space: pre;" transform="translate(501.443428707126,283.25130538023944)scale(0.47568615809911047)rotate(15.117007463931543)">Eubacteriaceae</text></g></g><g class="slice"><path class="surface" d="M481.53107593897374,270.40684236049384L525.3747679186317,280.5424564806584A180,180 0,0,0 525.6720026010704,279.2345192672158L481.7540019508028,269.42588945041183A135,135 0,0,1 481.53107593897374,270.40684236049384Z" style="pointer-events: none; stroke-width: 1; fill: rgb(239, 85, 59); fill-opacity: 1; stroke: rgb(255, 255, 255); stroke-opacity: 1; opacity: 0.7;"/><g class="slicetext"><text data-notex="1" class="slicetext" text-anchor="middle" x="0" y="0" style="font-family: 'Open Sans', verdana, arial, sans-serif; font-size: 12px; fill: rgb(68, 68, 68); fill-opacity: 1; white-space: pre;" transform="translate(519.6385694319396,278.95793595973055)scale(0.0835126061357512)rotate(12.803275715746679)">Peptostreptococcaceae</text></g></g><g class="slice"><path class="surface" d="M481.7540019508028,269.42588945041183L525.6720026010704,279.2345192672158A180,180 0,0,0 525.9555065408474,277.9428480474753L481.96662990563556,268.4571360356065A135,135 0,0,1 481.7540019508028,269.42588945041183Z" style="pointer-events: none; stroke-width: 1; fill: rgb(0, 204, 150); fill-opacity: 1; stroke: rgb(255, 255, 255); stroke-opacity: 1; opacity: 0.7;"/><g class="slicetext"><text data-notex="1" class="slicetext" text-anchor="middle" x="0" y="0" style="font-family: 'Open Sans', verdana, arial, sans-serif; font-size: 12px; fill: rgb(68, 68, 68); fill-opacity: 1; white-space: pre;" transform="translate(521.6962503766839,278.0940182654144)scale(0.08411762835020051)rotate(12.379333106054503)">Peptococcaceae</text></g></g><g class="slice"><path class="surface" d="M481.9666299056355,268.4571360356066L525.9555065408474,277.9428480474754A180,180 0,0,0 527.2852005153038,271.14414356261096L482.96390038647786,263.3581076719582A135,135 0,0,1 481.9666299056355,268.4571360356066Z" style="pointer-events: none; stroke-width: 1; fill: rgb(0, 204, 150); fill-opacity: 1; stroke: rgb(255, 255, 255); stroke-opacity: 1; opacity: 0.7;"/><g class="slicetext"><text data-notex="1" class="slicetext" text-anchor="middle" x="0" y="0" style="font-family: 'Open Sans', verdana, arial, sans-serif; font-size: 12px; fill: rgb(68, 68, 68); fill-opacity: 1; white-space: pre;" transform="translate(504.44118297660356,270.88899816382616)scale(0.14118101852250498)rotate(11.066246926296344)">Thermoanaerobacterales Family III. Incertae Sedis</text></g></g><g class="slice"><path class="surface" d="M482.96390038647786,263.3581076719582L527.2852005153038,271.14414356261096A180,180 0,0,0 529.9896674408595,241.92863022085194L484.9922505806446,241.44647266563896A135,135 0,0,1 482.96390038647786,263.3581076719582Z" style="pointer-events: none; stroke-width: 1; fill: rgb(86, 180, 233); fill-opacity: 1; stroke: rgb(255, 255, 255); stroke-opacity: 1; opacity: 0.7;"/><g class="slicetext"><text data-notex="1" class="slicetext" text-anchor="middle" x="0" y="0" style="font-family: 'Open Sans', verdana, arial, sans-serif; font-size: 12px; fill: rgb(68, 68, 68); fill-opacity: 1; white-space: pre;" transform="translate(506.655298727489,256.2813601774565)scale(0.3731099883418873)rotate(5.288772186881147)">Erysipelotrichaceae</text></g></g><g class="slice"><path class="surface" d="M484.9922505806446,241.44647266563896L529.9896674408595,241.92863022085194A180,180 0,0,0 529.9989568480346,240.61280797920955L484.99921763602595,240.45960598440715A135,135 0,0,1 484.9922505806446,241.44647266563896Z" style="pointer-events: none; stroke-width: 1; fill: rgb(182, 232, 128); fill-opacity: 1; stroke: rgb(255, 255, 255); stroke-opacity: 1; opacity: 0.7;"/><g class="slicetext"><text data-notex="1" class="slicetext" text-anchor="middle" x="0" y="0" style="font-family: 'Open Sans', verdana, arial, sans-serif; font-size: 12px; fill: rgb(68, 68, 68); fill-opacity: 1; white-space: pre;" transform="translate(525.842034586201,241.6388899607336)scale(0.0836789674344813)rotate(0.4044885139595067)">Sporomusaceae</text></g></g><g class="slice"><path class="surface" d="M484.99921763602595,240.45960598440715L529.9989568480346,240.61280797920955A180,180 0,0,0 530,239.9999999999999L485,239.99999999999991A135,135 0,0,1 484.99921763602595,240.45960598440715Z" style="pointer-events: none; stroke-width: 1; fill: rgb(255, 151, 255); fill-opacity: 1; stroke: rgb(255, 255, 255); stroke-opacity: 1; opacity: 0.7;"/><g class="slicetext"><text data-notex="1" class="slicetext" text-anchor="middle" x="0" y="0" style="font-family: 'Open Sans', verdana, arial, sans-serif; font-size: 12px; fill: rgb(68, 68, 68); fill-opacity: 1; white-space: pre;" transform="translate(527.9061543127925,240.49238413338523)scale(0.03990383762289991)rotate(0.09753160746532785)">Peptoniphilaceae</text></g></g></g></g><g class="glimages"/><defs id="topdefs-6313dc"><g class="clips"/></defs><g class="layer-above"><g class="imagelayer"/><g class="shapelayer"/></g><g class="infolayer"><g class="g-gtitle"/></g></svg>